<svg width="222" height="140" viewBox="0 0 222 140" fill="none" xmlns="http://www.w3.org/2000/svg">
<path d="M95.56 39.86H91.04V45H87.4V31.42H96.22L96.56 34.28H91.04V37H95.22L95.56 39.86ZM100.402 41.74C100.402 41.9 100.468 42.0333 100.602 42.14C100.735 42.2467 100.888 42.3 101.062 42.3C101.275 42.3 101.488 42.2533 101.702 42.16C101.915 42.0667 102.128 41.9333 102.342 41.76V41.04H101.222C100.982 41.04 100.782 41.1067 100.622 41.24C100.475 41.36 100.402 41.5267 100.402 41.74ZM97.6817 35.88C98.1884 35.6533 98.8284 35.4467 99.6017 35.26C100.375 35.06 101.162 34.96 101.962 34.96C103.282 34.96 104.282 35.3267 104.962 36.06C105.642 36.7933 105.982 37.7733 105.982 39V45H104.362L103.702 44.26C103.408 44.5533 103.022 44.7867 102.542 44.96C102.062 45.1333 101.548 45.22 101.002 45.22C99.7751 45.22 98.8617 44.9133 98.2617 44.3C97.6617 43.6867 97.3617 42.88 97.3617 41.88C97.3617 40.8267 97.7151 40.06 98.4217 39.58C99.1284 39.0867 100.042 38.84 101.162 38.84H102.322C102.268 38.5467 102.128 38.32 101.902 38.16C101.675 38 101.395 37.92 101.062 37.92C100.728 37.92 100.335 37.98 99.8817 38.1C99.4284 38.2067 99.0151 38.34 98.6417 38.5L97.6817 35.88ZM109.977 33.98C109.443 33.98 108.983 33.7867 108.597 33.4C108.21 33.0133 108.017 32.5533 108.017 32.02C108.017 31.4733 108.21 31.0067 108.597 30.62C108.983 30.22 109.443 30.02 109.977 30.02C110.523 30.02 110.99 30.22 111.377 30.62C111.777 31.0067 111.977 31.4733 111.977 32.02C111.977 32.5533 111.777 33.0133 111.377 33.4C110.99 33.7867 110.523 33.98 109.977 33.98ZM108.177 45V35.3H111.817V45H108.177ZM114.212 45V35.32H116.032L116.912 36.3C117.312 36.0333 117.785 35.8 118.332 35.6C118.878 35.4 119.425 35.3 119.972 35.3L120.712 38.22C120.232 38.22 119.738 38.2867 119.232 38.42C118.725 38.5533 118.265 38.78 117.852 39.1V45H114.212ZM135.597 34.72C134.877 34.4667 134.33 34.3067 133.957 34.24C133.584 34.16 133.17 34.12 132.717 34.12C131.904 34.12 131.224 34.5 130.677 35.26C130.13 36.0067 129.857 37 129.857 38.24C129.857 39.52 130.144 40.5133 130.717 41.22C131.29 41.9267 132.004 42.28 132.857 42.28C133.35 42.28 133.817 42.2133 134.257 42.08C134.697 41.9333 135.09 41.7533 135.437 41.54L136.817 44.26C136.284 44.58 135.644 44.8267 134.897 45C134.164 45.1733 133.45 45.26 132.757 45.26C130.544 45.26 128.877 44.6067 127.757 43.3C126.65 41.9933 126.097 40.3133 126.097 38.26C126.097 36.1667 126.69 34.46 127.877 33.14C129.064 31.8067 130.664 31.14 132.677 31.14C133.357 31.14 134.057 31.24 134.777 31.44C135.51 31.6267 136.144 31.9 136.677 32.26L135.597 34.72ZM138.626 45V31.1L142.266 30.88V35.6C142.666 35.4267 143.119 35.28 143.626 35.16C144.132 35.0267 144.619 34.96 145.086 34.96C146.459 34.96 147.439 35.3467 148.026 36.12C148.612 36.88 148.906 37.84 148.906 39V45H145.266V39.08C145.266 38.7067 145.152 38.42 144.926 38.22C144.699 38.02 144.419 37.92 144.086 37.92C143.859 37.92 143.572 37.98 143.226 38.1C142.879 38.22 142.559 38.3467 142.266 38.48V45H138.626ZM153.546 41.74C153.546 41.9 153.613 42.0333 153.746 42.14C153.88 42.2467 154.033 42.3 154.206 42.3C154.42 42.3 154.633 42.2533 154.846 42.16C155.06 42.0667 155.273 41.9333 155.486 41.76V41.04H154.366C154.126 41.04 153.926 41.1067 153.766 41.24C153.62 41.36 153.546 41.5267 153.546 41.74ZM150.826 35.88C151.333 35.6533 151.973 35.4467 152.746 35.26C153.52 35.06 154.306 34.96 155.106 34.96C156.426 34.96 157.426 35.3267 158.106 36.06C158.786 36.7933 159.126 37.7733 159.126 39V45H157.506L156.846 44.26C156.553 44.5533 156.166 44.7867 155.686 44.96C155.206 45.1333 154.693 45.22 154.146 45.22C152.92 45.22 152.006 44.9133 151.406 44.3C150.806 43.6867 150.506 42.88 150.506 41.88C150.506 40.8267 150.86 40.06 151.566 39.58C152.273 39.0867 153.186 38.84 154.306 38.84H155.466C155.413 38.5467 155.273 38.32 155.046 38.16C154.82 38 154.54 37.92 154.206 37.92C153.873 37.92 153.48 37.98 153.026 38.1C152.573 38.2067 152.16 38.34 151.786 38.5L150.826 35.88ZM161.321 45V35.32H163.141L164.021 36.3C164.421 36.0333 164.894 35.8 165.441 35.6C165.988 35.4 166.534 35.3 167.081 35.3L167.821 38.22C167.341 38.22 166.848 38.2867 166.341 38.42C165.834 38.5533 165.374 38.78 164.961 39.1V45H161.321ZM175.392 41.98V38.54C175.205 38.3667 174.965 38.22 174.672 38.1C174.392 37.98 174.132 37.92 173.892 37.92C173.345 37.92 172.952 38.1667 172.712 38.66C172.485 39.14 172.372 39.62 172.372 40.1C172.372 40.6733 172.525 41.18 172.832 41.62C173.152 42.0467 173.605 42.26 174.192 42.26C174.338 42.26 174.532 42.2333 174.772 42.18C175.012 42.1267 175.218 42.06 175.392 41.98ZM179.032 35.32V45.1C179.032 46.5 178.565 47.56 177.632 48.28C176.712 49.0133 175.398 49.38 173.692 49.38C173.278 49.38 172.658 49.2933 171.832 49.12C171.005 48.96 170.278 48.6733 169.652 48.26L170.752 45.7C171.405 46.02 171.945 46.22 172.372 46.3C172.812 46.3933 173.232 46.44 173.632 46.44C174.045 46.44 174.438 46.36 174.812 46.2C175.198 46.04 175.392 45.8067 175.392 45.5V44.8C175.112 44.92 174.798 45.02 174.452 45.1C174.105 45.18 173.712 45.22 173.272 45.22C171.712 45.22 170.545 44.74 169.772 43.78C168.998 42.82 168.612 41.62 168.612 40.18C168.612 38.7267 168.992 37.4933 169.752 36.48C170.525 35.4667 171.765 34.96 173.472 34.96C174.018 34.96 174.565 35.08 175.112 35.32C175.672 35.5467 176.165 35.8133 176.592 36.12L177.212 35.32H179.032ZM180.838 40.16C180.838 38.5333 181.338 37.26 182.338 36.34C183.352 35.42 184.592 34.96 186.058 34.96C187.605 34.96 188.765 35.46 189.538 36.46C190.312 37.46 190.698 38.64 190.698 40V41.26H184.798C184.958 41.6333 185.198 41.9 185.518 42.06C185.852 42.22 186.245 42.3 186.698 42.3C187.125 42.3 187.558 42.26 187.998 42.18C188.452 42.1 188.865 41.9667 189.238 41.78L190.258 44.24C189.698 44.6533 189.005 44.92 188.178 45.04C187.352 45.16 186.738 45.22 186.338 45.22C184.765 45.22 183.452 44.82 182.398 44.02C181.358 43.2067 180.838 41.92 180.838 40.16ZM187.218 39.06C187.205 38.8467 187.105 38.6 186.918 38.32C186.732 38.0267 186.412 37.88 185.958 37.88C185.625 37.88 185.352 37.9867 185.138 38.2C184.938 38.4 184.792 38.6867 184.698 39.06H187.218ZM195.973 38.26C195.973 38.3533 196.02 38.4333 196.113 38.5C196.22 38.5533 196.446 38.64 196.793 38.76C197.593 39.04 198.36 39.4267 199.093 39.92C199.826 40.4 200.193 41.0867 200.193 41.98C200.193 42.9933 199.853 43.7867 199.173 44.36C198.506 44.9333 197.5 45.22 196.153 45.22C195.753 45.22 195.1 45.1067 194.193 44.88C193.3 44.6533 192.573 44.32 192.013 43.88L193.033 41.38C193.42 41.58 193.886 41.78 194.433 41.98C194.993 42.1667 195.446 42.26 195.793 42.26C196.006 42.26 196.166 42.22 196.273 42.14C196.38 42.06 196.433 41.9867 196.433 41.92C196.433 41.8267 196.38 41.7467 196.273 41.68C196.166 41.6 195.966 41.5133 195.673 41.42C194.873 41.14 194.093 40.76 193.333 40.28C192.586 39.7867 192.213 39.0933 192.213 38.2C192.213 37.1867 192.593 36.3933 193.353 35.82C194.113 35.2467 195.166 34.96 196.513 34.96C196.913 34.96 197.48 35.06 198.213 35.26C198.96 35.4467 199.613 35.76 200.173 36.2L199.153 38.7C198.766 38.5 198.36 38.32 197.933 38.16C197.506 38 197.12 37.92 196.773 37.92C196.48 37.92 196.273 37.96 196.153 38.04C196.033 38.12 195.973 38.1933 195.973 38.26Z" fill="#111111"/>
<path d="M90.7 20.556H89.524V22.716H90.724C91.06 22.716 91.336 22.616 91.552 22.416C91.768 22.208 91.876 21.944 91.876 21.624C91.876 21.264 91.772 20.996 91.564 20.82C91.356 20.644 91.068 20.556 90.7 20.556ZM87.34 27V18.84H90.772C91.676 18.84 92.46 19.06 93.124 19.5C93.796 19.932 94.132 20.64 94.132 21.624C94.132 22.12 94.028 22.548 93.82 22.908C93.62 23.268 93.356 23.56 93.028 23.784L94.828 27H92.296L90.976 24.432H89.524V27H87.34ZM95.3092 24.096C95.3092 23.12 95.6092 22.356 96.2092 21.804C96.8172 21.252 97.5612 20.976 98.4412 20.976C99.3692 20.976 100.065 21.276 100.529 21.876C100.993 22.476 101.225 23.184 101.225 24V24.756H97.6852C97.7812 24.98 97.9252 25.14 98.1172 25.236C98.3172 25.332 98.5532 25.38 98.8252 25.38C99.0812 25.38 99.3412 25.356 99.6052 25.308C99.8772 25.26 100.125 25.18 100.349 25.068L100.961 26.544C100.625 26.792 100.209 26.952 99.7132 27.024C99.2172 27.096 98.8492 27.132 98.6092 27.132C97.6652 27.132 96.8772 26.892 96.2452 26.412C95.6212 25.924 95.3092 25.152 95.3092 24.096ZM99.1372 23.436C99.1292 23.308 99.0692 23.16 98.9572 22.992C98.8452 22.816 98.6532 22.728 98.3812 22.728C98.1812 22.728 98.0172 22.792 97.8892 22.92C97.7692 23.04 97.6812 23.212 97.6252 23.436H99.1372ZM103.766 25.044C103.766 25.14 103.806 25.22 103.886 25.284C103.966 25.348 104.058 25.38 104.162 25.38C104.29 25.38 104.418 25.352 104.546 25.296C104.674 25.24 104.802 25.16 104.93 25.056V24.624H104.258C104.114 24.624 103.994 24.664 103.898 24.744C103.81 24.816 103.766 24.916 103.766 25.044ZM102.134 21.528C102.438 21.392 102.822 21.268 103.286 21.156C103.75 21.036 104.222 20.976 104.702 20.976C105.494 20.976 106.094 21.196 106.502 21.636C106.91 22.076 107.114 22.664 107.114 23.4V27H106.142L105.746 26.556C105.57 26.732 105.338 26.872 105.05 26.976C104.762 27.08 104.454 27.132 104.126 27.132C103.39 27.132 102.842 26.948 102.482 26.58C102.122 26.212 101.942 25.728 101.942 25.128C101.942 24.496 102.154 24.036 102.578 23.748C103.002 23.452 103.55 23.304 104.222 23.304H104.918C104.886 23.128 104.802 22.992 104.666 22.896C104.53 22.8 104.362 22.752 104.162 22.752C103.962 22.752 103.726 22.788 103.454 22.86C103.182 22.924 102.934 23.004 102.71 23.1L102.134 21.528ZM110.519 22.956C110.519 23.012 110.547 23.06 110.603 23.1C110.667 23.132 110.803 23.184 111.011 23.256C111.491 23.424 111.951 23.656 112.391 23.952C112.831 24.24 113.051 24.652 113.051 25.188C113.051 25.796 112.847 26.272 112.439 26.616C112.039 26.96 111.435 27.132 110.627 27.132C110.387 27.132 109.995 27.064 109.451 26.928C108.915 26.792 108.479 26.592 108.143 26.328L108.755 24.828C108.987 24.948 109.267 25.068 109.595 25.188C109.931 25.3 110.203 25.356 110.411 25.356C110.539 25.356 110.635 25.332 110.699 25.284C110.763 25.236 110.795 25.192 110.795 25.152C110.795 25.096 110.763 25.048 110.699 25.008C110.635 24.96 110.515 24.908 110.339 24.852C109.859 24.684 109.391 24.456 108.935 24.168C108.487 23.872 108.263 23.456 108.263 22.92C108.263 22.312 108.491 21.836 108.947 21.492C109.403 21.148 110.035 20.976 110.843 20.976C111.083 20.976 111.423 21.036 111.863 21.156C112.311 21.268 112.703 21.456 113.039 21.72L112.427 23.22C112.195 23.1 111.951 22.992 111.695 22.896C111.439 22.8 111.207 22.752 110.999 22.752C110.823 22.752 110.699 22.776 110.627 22.824C110.555 22.872 110.519 22.916 110.519 22.956ZM113.743 24.06C113.743 23.084 114.063 22.328 114.703 21.792C115.351 21.248 116.131 20.976 117.043 20.976C118.003 20.976 118.791 21.24 119.407 21.768C120.031 22.296 120.343 23.08 120.343 24.12C120.343 25.096 120.019 25.844 119.371 26.364C118.723 26.876 117.931 27.132 116.995 27.132C116.059 27.132 115.283 26.88 114.667 26.376C114.051 25.872 113.743 25.1 113.743 24.06ZM115.999 24.06C115.999 24.452 116.087 24.768 116.263 25.008C116.439 25.24 116.691 25.356 117.019 25.356C117.363 25.356 117.627 25.252 117.811 25.044C117.995 24.836 118.087 24.528 118.087 24.12C118.087 23.728 117.999 23.404 117.823 23.148C117.647 22.884 117.395 22.752 117.067 22.752C116.723 22.752 116.459 22.868 116.275 23.1C116.091 23.332 115.999 23.652 115.999 24.06ZM122.975 21.696C123.223 21.552 123.551 21.396 123.959 21.228C124.367 21.06 124.815 20.976 125.303 20.976C126.127 20.976 126.715 21.208 127.067 21.672C127.419 22.128 127.595 22.704 127.595 23.4V27H125.411V23.448C125.411 23.224 125.343 23.052 125.207 22.932C125.071 22.812 124.903 22.752 124.703 22.752C124.567 22.752 124.395 22.788 124.187 22.86C123.979 22.932 123.787 23.008 123.611 23.088V27H121.427V21.192H122.519L122.975 21.696ZM130.379 25.044C130.379 25.14 130.419 25.22 130.499 25.284C130.579 25.348 130.671 25.38 130.775 25.38C130.903 25.38 131.031 25.352 131.159 25.296C131.287 25.24 131.415 25.16 131.543 25.056V24.624H130.871C130.727 24.624 130.607 24.664 130.511 24.744C130.423 24.816 130.379 24.916 130.379 25.044ZM128.747 21.528C129.051 21.392 129.435 21.268 129.899 21.156C130.363 21.036 130.835 20.976 131.315 20.976C132.107 20.976 132.707 21.196 133.115 21.636C133.523 22.076 133.727 22.664 133.727 23.4V27H132.755L132.359 26.556C132.183 26.732 131.951 26.872 131.663 26.976C131.375 27.08 131.067 27.132 130.739 27.132C130.003 27.132 129.455 26.948 129.095 26.58C128.735 26.212 128.555 25.728 128.555 25.128C128.555 24.496 128.767 24.036 129.191 23.748C129.615 23.452 130.163 23.304 130.835 23.304H131.531C131.499 23.128 131.415 22.992 131.279 22.896C131.143 22.8 130.975 22.752 130.775 22.752C130.575 22.752 130.339 22.788 130.067 22.86C129.795 22.924 129.547 23.004 129.323 23.1L128.747 21.528ZM135.044 27V18.66L137.228 18.528V21.288C137.38 21.208 137.568 21.136 137.792 21.072C138.024 21.008 138.26 20.976 138.5 20.976C139.436 20.976 140.136 21.264 140.6 21.84C141.064 22.416 141.296 23.136 141.296 24C141.296 24.872 141.064 25.612 140.6 26.22C140.144 26.828 139.404 27.132 138.38 27.132C138.052 27.132 137.72 27.064 137.384 26.928C137.056 26.792 136.764 26.628 136.508 26.436L136.148 27H135.044ZM139.04 24.048C139.04 23.704 138.944 23.404 138.752 23.148C138.568 22.884 138.3 22.752 137.948 22.752C137.86 22.752 137.744 22.768 137.6 22.8C137.456 22.832 137.332 22.872 137.228 22.92V24.996C137.34 25.1 137.48 25.188 137.648 25.26C137.816 25.324 137.976 25.356 138.128 25.356C138.456 25.356 138.688 25.212 138.824 24.924C138.968 24.628 139.04 24.336 139.04 24.048ZM142.38 27V18.66L144.564 18.528V27H142.38ZM145.641 24.096C145.641 23.12 145.941 22.356 146.541 21.804C147.149 21.252 147.893 20.976 148.773 20.976C149.701 20.976 150.397 21.276 150.861 21.876C151.325 22.476 151.557 23.184 151.557 24V24.756H148.017C148.113 24.98 148.257 25.14 148.449 25.236C148.649 25.332 148.885 25.38 149.157 25.38C149.413 25.38 149.673 25.356 149.937 25.308C150.209 25.26 150.457 25.18 150.681 25.068L151.293 26.544C150.957 26.792 150.541 26.952 150.045 27.024C149.549 27.096 149.181 27.132 148.941 27.132C147.997 27.132 147.209 26.892 146.577 26.412C145.953 25.924 145.641 25.152 145.641 24.096ZM149.469 23.436C149.461 23.308 149.401 23.16 149.289 22.992C149.177 22.816 148.985 22.728 148.713 22.728C148.513 22.728 148.349 22.792 148.221 22.92C148.101 23.04 148.013 23.212 147.957 23.436H149.469ZM157.287 24.384C157.287 24.72 157.379 24.988 157.563 25.188C157.755 25.388 158.027 25.488 158.379 25.488C158.507 25.488 158.627 25.464 158.739 25.416C158.859 25.36 158.975 25.288 159.087 25.2L157.431 23.76C157.383 23.856 157.347 23.96 157.323 24.072C157.299 24.176 157.287 24.28 157.287 24.384ZM158.595 22.164L160.143 23.484C160.247 23.22 160.331 22.956 160.395 22.692C160.459 22.42 160.507 22.172 160.539 21.948L162.459 22.716C162.419 23.084 162.339 23.452 162.219 23.82C162.107 24.188 161.963 24.54 161.787 24.876L162.699 25.644L161.415 27.228L160.527 26.46C160.215 26.708 159.871 26.908 159.495 27.06C159.127 27.212 158.739 27.288 158.331 27.288C157.427 27.288 156.651 27.056 156.003 26.592C155.355 26.12 155.031 25.408 155.031 24.456C155.031 24.08 155.123 23.704 155.307 23.328C155.499 22.952 155.751 22.628 156.063 22.356C155.935 22.164 155.835 21.968 155.763 21.768C155.699 21.56 155.667 21.332 155.667 21.084C155.667 20.436 155.919 19.868 156.423 19.38C156.927 18.892 157.579 18.648 158.379 18.648C158.843 18.648 159.275 18.708 159.675 18.828C160.083 18.948 160.459 19.132 160.803 19.38L160.215 20.868C159.943 20.716 159.679 20.608 159.423 20.544C159.167 20.472 158.915 20.436 158.667 20.436C158.371 20.436 158.151 20.512 158.007 20.664C157.871 20.808 157.803 20.96 157.803 21.12C157.803 21.272 157.867 21.424 157.995 21.576C158.123 21.72 158.323 21.916 158.595 22.164Z" fill="#111111"/>
<path d="M47.7593 109.701C47.3803 110.982 48.3407 112.268 49.6772 112.268H198.114C198.959 112.268 199.712 111.738 199.997 110.943L208.81 86.3591C208.934 86.0125 208.96 85.6383 208.886 85.2778L205.215 67.5936C205.023 66.6654 204.205 66 203.257 66H177.754C176.899 66 176.139 66.5426 175.862 67.3505L163.944 102.063C163.667 102.871 162.907 103.413 162.052 103.413H51.113C50.227 103.413 49.4465 103.996 49.1952 104.846L47.7593 109.701Z" fill="#D8D8D8" stroke="black" stroke-width="2"/>
<path d="M51.3269 96.6492C50.9176 97.9388 51.8802 99.2543 53.2332 99.2543H157.502C158.373 99.2543 159.144 98.6907 159.408 97.8607L173.171 54.6064C173.581 53.3165 172.618 52 171.265 52H66.9635C66.092 52 65.3209 52.5643 65.0572 53.3949L51.3269 96.6492Z" fill="#D8D8D8" stroke="black" stroke-width="2"/>
<path d="M175.406 81.3545C174.719 83.3059 176.167 85.3503 178.236 85.3503H198.555C200.375 85.3503 201.777 83.7412 201.526 81.9376L200.227 72.5873C200.021 71.1041 198.753 70 197.256 70H181.526C180.253 70 179.118 70.8034 178.696 72.0043L175.406 81.3545Z" fill="#3C3C3C" stroke="black"/>
<circle cx="12" cy="12" r="9.5" transform="matrix(1 0 -0.241922 0.970296 62 107)" fill="#D9D9D9" stroke="black" stroke-width="5"/>
<circle cx="12" cy="12" r="9.5" transform="matrix(1 0 -0.241922 0.970296 104 107)" fill="#D9D9D9" stroke="black" stroke-width="5"/>
<circle cx="12" cy="12" r="9.5" transform="matrix(1 0 -0.241922 0.970296 162 107)" fill="#D9D9D9" stroke="black" stroke-width="5"/>
<g clip-path="url(#clip0_82_31)">
<path d="M70.4393 35.3596C67.9075 35.3606 65.4323 34.6105 63.3268 33.2043C61.2214 31.7981 59.5805 29.799 58.6116 27.4599C57.6427 25.1208 57.3894 22.5468 57.8838 20.0637C58.3782 17.5807 59.5981 15.3 61.3891 13.5104C63.7894 11.1102 67.0448 9.76172 70.4393 9.76172C73.8338 9.76172 77.0893 11.1102 79.4895 13.5104C81.8898 15.9107 83.2383 19.1662 83.2383 22.5607C83.2383 25.9552 81.8898 29.2106 79.4895 31.6109C78.3038 32.8031 76.8934 33.7483 75.3399 34.3917C73.7864 35.0352 72.1208 35.3642 70.4393 35.3596Z" fill="white"/>
<path d="M70.4393 10.5235C68.0586 10.5232 65.7312 11.2291 63.7516 12.5517C61.772 13.8743 60.2292 15.7542 59.3181 17.9538C58.4071 20.1533 58.1688 22.5737 58.6334 24.9086C59.0981 27.2436 60.2447 29.3884 61.9284 31.0716C64.1901 33.3083 67.2451 34.5588 70.426 34.55C73.6068 34.5411 76.6549 33.2736 78.9041 31.0244C81.1533 28.7752 82.4208 25.7271 82.4296 22.5463C82.4385 19.3654 81.188 16.3104 78.9513 14.0487C77.8359 12.9276 76.5094 12.0388 75.0483 11.4337C73.5873 10.8287 72.0207 10.5193 70.4393 10.5235Z" fill="white"/>
<path d="M79.4896 13.5104C78.3038 12.3182 76.8934 11.3731 75.3399 10.7296C73.7864 10.0862 72.1208 9.75719 70.4393 9.76177C69.9302 9.76185 69.4215 9.7917 68.9159 9.85114C71.301 10.136 73.5579 11.0864 75.4282 12.5937C77.2986 14.101 78.7069 16.1043 79.4922 18.3744C80.2774 20.6446 80.4078 23.0899 79.8686 25.4307C79.3293 27.7715 78.1421 29.9132 76.4427 31.6109C74.4184 33.6444 71.7656 34.933 68.9159 35.2672C69.4215 35.3269 69.9302 35.3571 70.4393 35.3575C72.9707 35.3581 75.4455 34.6079 77.5504 33.2018C79.6554 31.7957 81.2961 29.7969 82.2649 27.4582C83.2337 25.1195 83.4871 22.5461 82.9931 20.0633C82.4991 17.5806 81.2798 15.3001 79.4896 13.5104Z" fill="#979797"/>
<path d="M43.7457 55.0738L49.3753 53.7667C49.952 53.6329 50.5512 53.6294 51.1293 53.7566L64.7255 56.7537C65.5203 56.929 66.3431 56.935 67.1403 56.7712C67.9376 56.6074 68.6914 56.2776 69.3527 55.803L82.2318 46.5609C82.5625 46.3237 82.8278 46.0068 83.0031 45.6396C83.1783 45.2724 83.2579 44.8668 83.2342 44.4605C83.2133 44.0962 83.11 43.7413 82.9319 43.4228C82.7539 43.1042 82.5058 42.8302 82.2064 42.6215C81.907 42.4128 81.5642 42.2748 81.2037 42.2179C80.8432 42.161 80.4745 42.1868 80.1254 42.2932L62.1488 47.7644L46.1528 42.5573L43.7457 55.0738Z" fill="#D3D3D3"/>
<path d="M48.0825 53.7564C47.5043 53.6293 46.9051 53.6328 46.3285 53.7666L43.891 54.3333L43.7488 55.0737L48.77 53.9078L48.0825 53.7564Z" fill="#BCBCBC"/>
<path d="M42.6274 42.1024L50.6306 39.6933C53.1743 38.9284 55.9068 39.0892 58.3432 40.1473L65.9747 43.4644C66.5265 43.7036 66.9755 44.131 67.2417 44.6704C67.5078 45.2098 67.5739 45.8262 67.428 46.4097C67.2677 47.0542 66.8614 47.6102 66.296 47.9586C65.7306 48.307 65.0512 48.42 64.4035 48.2734L60.0688 47.2953L42.6274 42.1024Z" fill="#D3D3D3"/>
<path d="M64.4035 46.7536L60.0688 45.7755C60.0688 46.2079 60.2159 46.6275 60.486 46.9653C60.756 47.303 61.1329 47.5389 61.5547 47.6341L64.9439 48.3989C66.3099 48.7036 67.4271 47.8139 67.4271 46.4133C67.5408 45.9592 67.5264 45.4825 67.3854 45.0361C67.1948 45.6445 66.7822 46.1588 66.2298 46.477C65.6773 46.7952 65.0254 46.8939 64.4035 46.7536Z" fill="#BCBCBC"/>
<path d="M47.3471 57.7093L41.2422 58.7656L32 60.3703V40.4396L37.9069 39.5469L44.0169 38.4876C44.2408 38.4485 44.4702 38.4541 44.692 38.5039C44.9138 38.5537 45.1235 38.6468 45.3092 38.7779C45.4949 38.9089 45.6529 39.0754 45.7742 39.2677C45.8954 39.4599 45.9774 39.6742 46.0156 39.8983L48.7578 55.7075C48.7973 55.9317 48.7921 56.1614 48.7425 56.3835C48.6929 56.6056 48.5999 56.8158 48.4688 57.0018C48.3377 57.1878 48.1711 57.3461 47.9786 57.4676C47.7861 57.589 47.5715 57.6711 47.3471 57.7093Z" fill="#9F9F9F"/>
<path d="M48.5791 54.6841C48.4559 54.9177 48.2808 55.1199 48.0672 55.2752C47.8536 55.4305 47.6073 55.5347 47.3471 55.5799L41.2422 56.6392L32 58.2408V60.3736L41.2422 58.7659L47.3522 57.7066C47.5758 57.6678 47.7896 57.5853 47.9813 57.4638C48.173 57.3423 48.3388 57.1843 48.4694 56.9986C48.5999 56.813 48.6926 56.6034 48.7421 56.3819C48.7916 56.1605 48.7969 55.9314 48.7578 55.7078L48.5791 54.6841Z" fill="#575757"/>
<path d="M47.3471 57.7093L41.2422 58.7656L37.9069 39.5469L44.0169 38.4876C44.2408 38.4485 44.4702 38.4541 44.692 38.5039C44.9137 38.5537 45.1235 38.6468 45.3092 38.7779C45.4949 38.9089 45.6529 39.0754 45.7741 39.2677C45.8953 39.4599 45.9774 39.6742 46.0156 39.8983L48.7578 55.7075C48.7973 55.9317 48.7921 56.1614 48.7425 56.3835C48.6929 56.6057 48.5999 56.8158 48.4688 57.0018C48.3377 57.1879 48.1711 57.3461 47.9786 57.4676C47.7861 57.589 47.5715 57.6711 47.3471 57.7093Z" fill="#575757"/>
<path d="M48.7578 55.7074L46.0156 39.8982C45.9775 39.6739 45.8953 39.4594 45.774 39.267C45.6526 39.0745 45.4944 38.908 45.3085 38.7769C45.1226 38.6458 44.9126 38.5528 44.6906 38.5031C44.4686 38.4534 44.2389 38.4481 44.0149 38.4875L43.0185 38.6601L45.711 54.184C45.7505 54.408 45.7453 54.6377 45.6958 54.8598C45.6462 55.0818 45.5533 55.2919 45.4223 55.4779C45.2913 55.664 45.1248 55.8223 44.9324 55.9437C44.74 56.0652 44.5255 56.1475 44.3013 56.1858L40.8928 56.7769L41.2422 58.7654L47.3522 57.7062C47.5758 57.6674 47.7896 57.5849 47.9813 57.4634C48.173 57.3419 48.3389 57.1838 48.4694 56.9982C48.6 56.8126 48.6926 56.603 48.7421 56.3815C48.7916 56.16 48.7969 55.931 48.7578 55.7074Z" fill="#535353"/>
<path d="M69.113 22.291H66.0235C66.0079 22.29 65.9923 22.29 65.9767 22.291H65.9473L65.9056 22.2981L65.8731 22.3032C65.861 22.3032 65.8488 22.3093 65.8366 22.3123L65.801 22.3215L65.7645 22.3347L65.732 22.3468C65.7167 22.3529 65.7025 22.3611 65.6873 22.3682L65.666 22.3793L65.6284 22.4017L65.602 22.4179L65.5735 22.4393L65.542 22.4626L65.5197 22.484L65.4862 22.5144L65.4689 22.5337L65.4405 22.5672C65.4324 22.5764 65.4263 22.5855 65.4192 22.5947L65.3968 22.6272C65.3897 22.6373 65.3836 22.6485 65.3775 22.6586C65.3707 22.669 65.3645 22.6799 65.3592 22.6911C65.3531 22.7023 65.3481 22.7135 65.343 22.7247C65.3369 22.7357 65.3318 22.7472 65.3277 22.7592C65.3227 22.7705 65.3183 22.782 65.3145 22.7937C65.3102 22.8054 65.3065 22.8172 65.3034 22.8293C65.2994 22.8409 65.2963 22.8527 65.2942 22.8648L65.2851 22.9014C65.2851 22.9146 65.2851 22.9268 65.28 22.939C65.2749 22.9511 65.28 22.9633 65.2749 22.9755C65.2699 22.9877 65.2749 23.004 65.2749 23.0182C65.2749 23.0324 65.2749 23.0354 65.2749 23.0446V23.0507C65.2749 23.0649 65.2749 23.0801 65.2749 23.0943C65.2749 23.1086 65.2749 23.1157 65.2749 23.1268L65.281 23.1634C65.281 23.1756 65.281 23.1888 65.2871 23.201C65.289 23.2102 65.2914 23.2194 65.2942 23.2284C65.2942 23.2426 65.3013 23.2579 65.3054 23.2731C65.3077 23.2804 65.3104 23.2875 65.3135 23.2944C65.3135 23.3107 65.3247 23.3259 65.3308 23.3422L65.347 23.3757C65.3518 23.3868 65.3573 23.3977 65.3633 23.4082C65.3694 23.4193 65.3765 23.4305 65.3836 23.4417C65.3891 23.4519 65.3952 23.4617 65.4019 23.4711C65.4081 23.4807 65.4149 23.4899 65.4222 23.4986L65.4466 23.5321L65.4669 23.5534C65.477 23.5656 65.4872 23.5768 65.4984 23.5879L72.168 30.0412C72.3134 30.1804 72.508 30.2564 72.7093 30.2525C72.9106 30.2486 73.1021 30.1652 73.2421 30.0206C73.382 29.8759 73.4591 29.6817 73.4563 29.4804C73.4535 29.2791 73.3712 29.0871 73.2273 28.9464L67.9105 23.8022H69.112C70.169 23.8018 71.192 23.4291 72.0016 22.7496C72.8112 22.07 73.3555 21.127 73.5391 20.0861H74.8492C75.0513 20.0861 75.245 20.0058 75.3878 19.863C75.5307 19.7201 75.6109 19.5264 75.6109 19.3243C75.6109 19.1223 75.5307 18.9286 75.3878 18.7857C75.245 18.6429 75.0513 18.5626 74.8492 18.5626H73.5391C73.3982 17.7435 73.0317 16.98 72.4808 16.3577H74.8492C75.0513 16.3577 75.245 16.2775 75.3878 16.1346C75.5307 15.9918 75.6109 15.798 75.6109 15.596C75.6109 15.394 75.5307 15.2002 75.3878 15.0574C75.245 14.9145 75.0513 14.8343 74.8492 14.8343H66.0295C65.8275 14.8343 65.6338 14.9145 65.4909 15.0574C65.3481 15.2002 65.2678 15.394 65.2678 15.596C65.2678 15.798 65.3481 15.9918 65.4909 16.1346C65.6338 16.2775 65.8275 16.3577 66.0295 16.3577H69.113C69.7669 16.3586 70.4023 16.5751 70.9206 16.9737C71.439 17.3724 71.8114 17.9309 71.9801 18.5626H66.0295C65.8275 18.5626 65.6338 18.6429 65.4909 18.7857C65.3481 18.9286 65.2678 19.1223 65.2678 19.3243C65.2678 19.5264 65.3481 19.7201 65.4909 19.863C65.6338 20.0058 65.8275 20.0861 66.0295 20.0861H71.9801C71.8112 20.7177 71.4388 21.2761 70.9205 21.6747C70.4021 22.0733 69.7669 22.2899 69.113 22.291ZM83.9939 44.4113C83.9667 43.9317 83.8308 43.4646 83.5966 43.0452C83.3624 42.6258 83.036 42.2651 82.642 41.9904C82.248 41.7156 81.7967 41.534 81.3222 41.4591C80.8477 41.3843 80.3624 41.4182 79.903 41.5584L68.1969 45.1212C68.0894 44.6023 67.8592 44.1167 67.5254 43.7052C67.1915 43.2936 66.7639 42.9681 66.2784 42.7558L58.646 39.4388C56.0438 38.3118 53.1268 38.1416 50.4113 38.9584L46.816 40.0401L46.7682 39.7628C46.7123 39.4402 46.5935 39.1317 46.4184 38.855C46.2433 38.5783 46.0154 38.3388 45.7477 38.1502C45.4801 37.9616 45.1779 37.8275 44.8585 37.7557C44.539 37.6839 44.2085 37.6757 43.8859 37.7315L37.7779 38.7868L32.6317 39.6795C32.5332 39.6966 32.4389 39.7329 32.3544 39.7864C32.2699 39.8399 32.1967 39.9095 32.1391 39.9913C32.0227 40.1564 31.9767 40.361 32.0112 40.5601C32.0283 40.6586 32.0646 40.7529 32.1181 40.8374C32.1716 40.9219 32.2412 40.9951 32.323 41.0527C32.4881 41.1691 32.6927 41.2151 32.8917 41.1806L37.2864 40.4179L40.3566 58.1385L32.6317 59.474C32.4439 59.5066 32.2751 59.6084 32.1586 59.7593C32.0422 59.9103 31.9866 60.0994 32.0028 60.2893C32.019 60.4793 32.1058 60.6563 32.2461 60.7853C32.3865 60.9143 32.5701 60.9861 32.7607 60.9863C32.8046 60.986 32.8484 60.9823 32.8917 60.9751L47.4771 58.4462C48.1285 58.3329 48.7082 57.9657 49.089 57.4253C49.4699 56.8849 49.6207 56.2154 49.5084 55.5639L49.3327 54.5483L49.55 54.4975C50.0159 54.3906 50.4997 54.3878 50.9668 54.4894L64.561 57.4875C65.4603 57.6853 66.3911 57.6918 67.2931 57.5065C68.1951 57.3213 69.048 56.9483 69.7965 56.4119L82.6746 47.1697C83.1103 46.8595 83.4599 46.4435 83.6907 45.961C83.9215 45.4785 84.0258 44.9452 83.9939 44.4113ZM47.2161 56.9492L41.8577 57.8785L38.7874 40.1579L44.1469 39.2286C44.3998 39.1856 44.6594 39.2446 44.8688 39.3927C45.0782 39.5408 45.2204 39.766 45.2641 40.0187L48.0063 55.828C48.028 55.9535 48.0248 56.082 47.9969 56.2063C47.9689 56.3306 47.9168 56.4481 47.8434 56.5522C47.77 56.6563 47.6769 56.745 47.5692 56.8131C47.4616 56.8812 47.3416 56.9275 47.2161 56.9492ZM81.787 45.9368L68.9078 55.179C68.3332 55.5905 67.6785 55.8766 66.9861 56.0188C66.2938 56.1611 65.5793 56.1563 64.889 56.0047L51.2969 53.0025C50.6082 52.8522 49.8947 52.8564 49.2078 53.0147L49.0747 53.0462L47.078 41.5483L50.85 40.4128C53.2214 39.7009 55.7682 39.8509 58.0396 40.8363L65.671 44.1533C66.0277 44.3088 66.3237 44.5767 66.5139 44.9161C66.704 45.2556 66.7779 45.6479 66.7242 46.0333C66.7157 46.0958 66.7039 46.1579 66.6887 46.2191C66.5775 46.671 66.2932 47.0611 65.8971 47.3052C65.501 47.5494 65.0247 47.628 64.5711 47.5242L60.2344 46.5462C60.1368 46.5241 60.0358 46.5216 59.9371 46.5386C59.8385 46.5556 59.7442 46.5919 59.6596 46.6454C59.575 46.6989 59.5018 46.7685 59.4441 46.8503C59.3864 46.932 59.3454 47.0244 59.3234 47.122C59.3014 47.2196 59.2988 47.3207 59.3158 47.4193C59.3329 47.5179 59.3692 47.6122 59.4226 47.6968C59.4761 47.7814 59.5457 47.8546 59.6275 47.9123C59.7093 47.97 59.8016 48.011 59.8992 48.033L64.2349 49.0131C64.4741 49.0679 64.7188 49.0955 64.9642 49.0954C65.6748 49.0957 66.3666 48.8664 66.9363 48.4416C67.5061 48.0168 67.9233 47.4193 68.1258 46.7381L80.3438 43.0209C80.5008 42.9733 80.6641 42.949 80.8282 42.9488C81.1772 42.9503 81.5167 43.0623 81.798 43.2688C82.0793 43.4752 82.2881 43.7655 82.3942 44.0979C82.5004 44.4303 82.4985 44.7878 82.3888 45.1191C82.2792 45.4504 82.0674 45.7384 81.7839 45.9419L81.787 45.9368ZM70.4394 36.1147C73.1228 36.116 75.7463 35.3211 77.9777 33.8307C80.2092 32.3403 81.9483 30.2213 82.9749 27.742C84.0015 25.2628 84.2695 22.5346 83.7449 19.903C83.2203 17.2714 81.9267 14.8545 80.0279 12.9584C78.7685 11.6992 77.2733 10.7004 75.6279 10.0191C73.9824 9.33771 72.2189 8.98712 70.438 8.9873C68.657 8.98749 66.8935 9.33846 65.2482 10.0202C63.6029 10.7019 62.108 11.701 60.8488 12.9604C59.5897 14.2199 58.5909 15.715 57.9095 17.3605C57.2282 19.0059 56.8776 20.7695 56.8777 22.5504C56.8779 24.3313 57.2289 26.0948 57.9106 27.7401C58.5923 29.3854 59.5914 30.8803 60.8509 32.1395C62.1068 33.4033 63.601 34.4054 65.2469 35.0878C66.8928 35.7701 68.6577 36.1191 70.4394 36.1147ZM61.9274 14.039C63.0429 12.9111 64.3704 12.0147 65.8334 11.4015C67.2965 10.7884 68.8664 10.4704 70.4527 10.466C72.0391 10.4616 73.6107 10.7708 75.0772 11.3758C76.5436 11.9809 77.876 12.8698 78.9978 13.9916C80.1195 15.1133 81.0085 16.4457 81.6135 17.9122C82.2186 19.3786 82.5278 20.9502 82.5233 22.5366C82.5189 24.123 82.201 25.6928 81.5878 27.1559C80.9746 28.619 80.0783 29.9464 78.9503 31.0619C76.6886 33.2986 73.6336 34.5491 70.4527 34.5403C67.2719 34.5315 64.2238 33.2639 61.9746 31.0147C59.7254 28.7655 58.4579 25.7175 58.4491 22.5366C58.4402 19.3558 59.6908 16.3007 61.9274 14.039Z" fill="#3B3B3B"/>
</g>
<path d="M65.431 90.6085L66.6918 86.7281H67.9698C68.4138 86.7281 68.7623 86.8251 69.0153 87.0192C69.2695 87.2094 69.3242 87.527 69.1796 87.9721C69.0362 88.4134 68.7606 88.7387 68.3526 88.9479C67.9458 89.1533 67.5265 89.256 67.0945 89.256H66.6445L66.205 90.6085H65.431ZM67.7456 87.3444H67.2656L66.8428 88.6455H67.3348C67.5668 88.6455 67.7709 88.596 67.9471 88.4971C68.1244 88.3944 68.2563 88.2346 68.3428 88.0178C68.4244 87.7667 68.4092 87.5917 68.2974 87.4928C68.1855 87.3939 68.0016 87.3444 67.7456 87.3444ZM74.0203 87.7439L73.0469 89.0963H74.1269L74.0203 87.7439ZM74.6984 86.7281L75.0549 90.5057L74.2416 90.6085L74.1722 89.6954H72.6242L71.9676 90.6085H71.1876L74.0384 86.7281H74.6984ZM80.4583 87.3444H79.9783L79.5927 88.5313H80.0847C80.3167 88.5313 80.5229 88.4876 80.7033 88.4001C80.885 88.3088 81.0092 88.1604 81.0759 87.955C81.1464 87.7382 81.1251 87.5822 81.012 87.4871C80.8989 87.392 80.7143 87.3444 80.4583 87.3444ZM80.5138 90.6085L80.1318 89.1248C80.0866 89.1286 80.0394 89.1324 79.9901 89.1362C79.9421 89.1362 79.8941 89.1362 79.8461 89.1362H79.3961L78.9178 90.6085H78.1438L79.4046 86.7281H80.6826C81.1266 86.7281 81.475 86.8251 81.728 87.0192C81.981 87.2132 82.0413 87.5137 81.9091 87.9208C81.8312 88.1604 81.6978 88.3678 81.509 88.5428C81.3253 88.7139 81.1161 88.8471 80.8812 88.9422L81.3418 90.6085H80.5138ZM88.0442 87.43C87.8708 87.373 87.7317 87.333 87.6272 87.3102C87.5238 87.2836 87.3921 87.2702 87.2321 87.2702C86.9081 87.2702 86.6173 87.3958 86.3598 87.6469C86.1022 87.8979 85.9023 88.2422 85.7602 88.6797C85.6378 89.0563 85.6061 89.3816 85.6651 89.6555C85.7241 89.9294 85.9276 90.0664 86.2756 90.0664C86.4476 90.0664 86.6132 90.0492 86.7723 90.015C86.9354 89.9808 87.087 89.9389 87.2271 89.8895L87.3431 90.4373C87.1624 90.5133 86.9546 90.5742 86.7198 90.6199C86.4849 90.6655 86.2835 90.6883 86.1155 90.6883C85.4795 90.6883 85.0806 90.4943 84.9186 90.1063C84.7567 89.7183 84.7666 89.2446 84.9483 88.6854C85.1424 88.0882 85.4592 87.5993 85.8988 87.2189C86.3424 86.8385 86.8622 86.6483 87.4582 86.6483C87.5782 86.6483 87.7381 86.6673 87.9377 86.7053C88.1373 86.7434 88.3103 86.808 88.4567 86.8993L88.0442 87.43ZM93.4781 90.6085H90.6221L91.8829 86.7281H94.3189L94.2498 87.3102H92.4678L92.1285 88.3544H93.2205L93.1555 88.9422H91.9375L91.5834 90.0321H93.5394L93.4781 90.6085ZM99.3766 90.6085H96.6826L97.9434 86.7281H98.7174L97.6439 90.0321H99.4439L99.3766 90.6085ZM106.79 89.7525C106.895 89.8134 107.033 89.8742 107.205 89.9351C107.377 89.996 107.549 90.0264 107.721 90.0264C107.965 90.0264 108.159 89.9903 108.303 89.918C108.45 89.8457 108.546 89.7411 108.591 89.6041C108.633 89.4748 108.588 89.3607 108.456 89.2618C108.329 89.159 108.183 89.0601 108.018 88.965C107.776 88.8243 107.553 88.6607 107.35 88.4743C107.152 88.2841 107.108 88.0178 107.219 87.6754C107.315 87.3825 107.516 87.1371 107.825 86.9393C108.134 86.7377 108.513 86.6368 108.961 86.6368C109.165 86.6368 109.359 86.6673 109.543 86.7281C109.727 86.789 109.886 86.8556 110.018 86.9279L109.567 87.5213C109.462 87.4643 109.345 87.411 109.217 87.3615C109.091 87.3083 108.939 87.2817 108.763 87.2817C108.591 87.2817 108.435 87.314 108.294 87.3787C108.157 87.4433 108.067 87.5422 108.023 87.6754C107.978 87.8162 108.009 87.9341 108.118 88.0292C108.233 88.1205 108.374 88.2137 108.544 88.3088L108.578 88.3316C108.82 88.4724 109.042 88.6398 109.243 88.8338C109.449 89.024 109.499 89.2846 109.391 89.6155C109.291 89.9237 109.076 90.1786 108.747 90.3802C108.421 90.5818 108.012 90.6826 107.52 90.6826C107.348 90.6826 107.138 90.6465 106.889 90.5742C106.645 90.5019 106.489 90.4278 106.422 90.3517L106.79 89.7525ZM115.265 90.6085H112.409L113.67 86.7281H116.106L116.037 87.3102H114.255L113.915 88.3544H115.007L114.942 88.9422H113.724L113.37 90.0321H115.326L115.265 90.6085ZM120.784 87.3444H120.304L119.918 88.5313H120.41C120.642 88.5313 120.849 88.4876 121.029 88.4001C121.211 88.3088 121.335 88.1604 121.402 87.955C121.472 87.7382 121.451 87.5822 121.338 87.4871C121.224 87.392 121.04 87.3444 120.784 87.3444ZM120.839 90.6085L120.457 89.1248C120.412 89.1286 120.365 89.1324 120.316 89.1362C120.268 89.1362 120.22 89.1362 120.172 89.1362H119.722L119.243 90.6085H118.469L119.73 86.7281H121.008C121.452 86.7281 121.801 86.8251 122.054 87.0192C122.307 87.2132 122.367 87.5137 122.235 87.9208C122.157 88.1604 122.023 88.3678 121.835 88.5428C121.651 88.7139 121.442 88.8471 121.207 88.9422L121.667 90.6085H120.839ZM125.927 90.6085L125.571 86.8309L126.372 86.7281L126.597 89.5984L128.652 86.7281H129.438L126.587 90.6085H125.927ZM133.334 86.7281L132.073 90.6085H131.299L132.56 86.7281H133.334ZM139.219 87.43C139.046 87.373 138.907 87.333 138.802 87.3102C138.699 87.2836 138.567 87.2702 138.407 87.2702C138.083 87.2702 137.792 87.3958 137.535 87.6469C137.277 87.8979 137.077 88.2422 136.935 88.6797C136.813 89.0563 136.781 89.3816 136.84 89.6555C136.899 89.9294 137.103 90.0664 137.451 90.0664C137.623 90.0664 137.788 90.0492 137.947 90.015C138.111 89.9808 138.262 89.9389 138.402 89.8895L138.518 90.4373C138.337 90.5133 138.13 90.5742 137.895 90.6199C137.66 90.6655 137.459 90.6883 137.291 90.6883C136.655 90.6883 136.256 90.4943 136.094 90.1063C135.932 89.7183 135.942 89.2446 136.123 88.6854C136.317 88.0882 136.634 87.5993 137.074 87.2189C137.518 86.8385 138.037 86.6483 138.633 86.6483C138.753 86.6483 138.913 86.6673 139.113 86.7053C139.312 86.7434 139.485 86.808 139.632 86.8993L139.219 87.43ZM144.653 90.6085H141.797L143.058 86.7281H145.494L145.425 87.3102H143.643L143.304 88.3544H144.396L144.331 88.9422H143.113L142.758 90.0321H144.714L144.653 90.6085ZM148.13 89.7525C148.234 89.8134 148.372 89.8742 148.544 89.9351C148.717 89.996 148.889 90.0264 149.061 90.0264C149.305 90.0264 149.499 89.9903 149.642 89.918C149.79 89.8457 149.885 89.7411 149.93 89.6041C149.972 89.4748 149.927 89.3607 149.795 89.2618C149.669 89.159 149.523 89.0601 149.358 88.965C149.115 88.8243 148.893 88.6607 148.689 88.4743C148.491 88.2841 148.447 88.0178 148.559 87.6754C148.654 87.3825 148.856 87.1371 149.164 86.9393C149.473 86.7377 149.852 86.6368 150.3 86.6368C150.504 86.6368 150.698 86.6673 150.882 86.7281C151.067 86.789 151.225 86.8556 151.358 86.9279L150.907 87.5213C150.801 87.4643 150.685 87.411 150.557 87.3615C150.43 87.3083 150.279 87.2817 150.103 87.2817C149.931 87.2817 149.774 87.314 149.633 87.3787C149.496 87.4433 149.406 87.5422 149.363 87.6754C149.317 87.8162 149.349 87.9341 149.458 88.0292C149.572 88.1205 149.714 88.2137 149.883 88.3088L149.917 88.3316C150.16 88.4724 150.381 88.6398 150.582 88.8338C150.788 89.024 150.838 89.2846 150.73 89.6155C150.63 89.9237 150.415 90.1786 150.086 90.3802C149.76 90.5818 149.352 90.6826 148.86 90.6826C148.688 90.6826 148.477 90.6465 148.229 90.5742C147.984 90.5019 147.828 90.4278 147.761 90.3517L148.13 89.7525Z" fill="#585858"/>
<rect width="85" height="1" transform="matrix(1 0 -0.309018 0.951057 67.1992 85)" fill="#585858"/>
<path d="M87.7574 83.5317H80.1974L80.5453 80.2448H76.5493L74.7254 83.5317H67.4894L79.0418 62.2699H90.0218L87.7574 83.5317ZM81.4404 75.8281L82.3863 68.7066H82.2423L78.5244 75.8281H81.4404ZM91.9877 72.781C93.2262 68.9691 94.9156 66.2072 97.0558 64.4953C99.22 62.7834 102.126 61.9275 105.774 61.9275C109.446 61.9275 111.788 62.772 112.799 64.4611C113.834 66.1502 113.732 68.9006 112.494 72.7125C111.263 76.5015 109.535 79.309 107.309 81.135C105.108 82.9611 102.195 83.8741 98.5713 83.8741C94.9713 83.8741 92.6602 82.9725 91.6381 81.1693C90.64 79.3661 90.7565 76.57 91.9877 72.781ZM105.587 68.7066C105.468 68.1132 104.893 67.8164 103.861 67.8164C102.829 67.8164 102.076 68.1018 101.603 68.6724C101.129 69.243 100.588 70.4642 99.9803 72.3359L99.4908 73.8423C98.8678 75.7597 98.6196 77.0036 98.7462 77.5743C98.8728 78.1449 99.4641 78.4302 100.52 78.4302C101.576 78.4302 102.325 78.1563 102.767 77.6085C103.209 77.0607 103.738 75.8396 104.353 73.945L104.865 72.3701C105.473 70.4984 105.714 69.2773 105.587 68.7066ZM130.124 83.5317H122.78L120.97 75.1434H120.718L117.992 83.5317H111.152L118.06 62.2699H125.656L127.09 70.9321H127.306L130.12 62.2699H137.032L130.124 83.5317ZM148.64 62.2699L143.177 79.0808C142.584 80.9068 141.684 82.1622 140.478 82.8469C139.271 83.5317 137.324 83.8741 134.636 83.8741H132.008L133.258 78.8068H135.058C135.322 78.8068 135.505 78.7612 135.607 78.6699C135.733 78.5786 135.829 78.4302 135.896 78.2248L141.08 62.2699H148.64ZM152.573 83.5317H144.977L151.886 62.2699H159.482L152.573 83.5317Z" fill="#454545"/>
<defs>
<clipPath id="clip0_82_31">
<rect width="52" height="52" fill="white" transform="translate(32 9)"/>
</clipPath>
</defs>
</svg>
