<svg width="179" height="80" viewBox="0 0 179 80" fill="none" xmlns="http://www.w3.org/2000/svg">
<path d="M16.7593 58.7007C16.3803 59.9823 17.3407 61.2679 18.6772 61.2679H167.114C167.959 61.2679 168.712 60.7377 168.997 59.9428L177.81 35.3591C177.934 35.0125 177.96 34.6383 177.886 34.2778L174.215 16.5936C174.023 15.6654 173.205 15 172.257 15H146.754C145.899 15 145.139 15.5426 144.862 16.3505L132.944 51.0629C132.667 51.8708 131.907 52.4134 131.052 52.4134H20.113C19.227 52.4134 18.4465 52.9965 18.1952 53.8462L16.7593 58.7007Z" fill="#F6F6F6" stroke="black" stroke-width="2"/>
<path d="M20.3269 45.6492C19.9176 46.9388 20.8802 48.2543 22.2332 48.2543H126.502C127.373 48.2543 128.144 47.6907 128.408 46.8607L142.171 3.6064C142.581 2.31651 141.618 1 140.265 1H35.9635C35.092 1 34.3209 1.56428 34.0572 2.39489L20.3269 45.6492Z" fill="#F6F6F6" stroke="black" stroke-width="2"/>
<path d="M144.406 30.3545C143.719 32.3059 145.167 34.3503 147.236 34.3503H167.555C169.375 34.3503 170.777 32.7412 170.526 30.9376L169.227 21.5873C169.021 20.1041 167.753 19 166.256 19H150.526C149.253 19 148.118 19.8034 147.696 21.0043L144.406 30.3545Z" fill="#3C3C3C" stroke="black"/>
<circle cx="12" cy="12" r="9.5" transform="matrix(1 0 -0.241922 0.970296 31 56)" fill="#D9D9D9" stroke="black" stroke-width="5"/>
<circle cx="12" cy="12" r="9.5" transform="matrix(1 0 -0.241922 0.970296 73 56)" fill="#D9D9D9" stroke="black" stroke-width="5"/>
<circle cx="12" cy="12" r="9.5" transform="matrix(1 0 -0.241922 0.970296 131 56)" fill="#D9D9D9" stroke="black" stroke-width="5"/>
<path d="M33.431 41.6085L34.6918 37.7281H35.9698C36.4138 37.7281 36.7623 37.8251 37.0153 38.0192C37.2695 38.2094 37.3242 38.527 37.1796 38.9721C37.0362 39.4134 36.7606 39.7387 36.3526 39.9479C35.9458 40.1533 35.5265 40.256 35.0945 40.256H34.6445L34.205 41.6085H33.431ZM35.7456 38.3444H35.2656L34.8428 39.6455H35.3348C35.5668 39.6455 35.7709 39.596 35.9471 39.4971C36.1244 39.3944 36.2563 39.2346 36.3428 39.0178C36.4244 38.7667 36.4092 38.5917 36.2974 38.4928C36.1855 38.3939 36.0016 38.3444 35.7456 38.3444ZM42.0203 38.7439L41.0469 40.0963H42.1269L42.0203 38.7439ZM42.6984 37.7281L43.0549 41.5057L42.2416 41.6085L42.1722 40.6954H40.6242L39.9676 41.6085H39.1876L42.0384 37.7281H42.6984ZM48.4583 38.3444H47.9783L47.5927 39.5313H48.0847C48.3167 39.5313 48.5229 39.4876 48.7033 39.4001C48.885 39.3088 49.0092 39.1604 49.0759 38.955C49.1464 38.7382 49.1251 38.5822 49.012 38.4871C48.8989 38.392 48.7143 38.3444 48.4583 38.3444ZM48.5138 41.6085L48.1318 40.1248C48.0866 40.1286 48.0394 40.1324 47.9901 40.1362C47.9421 40.1362 47.8941 40.1362 47.8461 40.1362H47.3961L46.9178 41.6085H46.1438L47.4046 37.7281H48.6826C49.1266 37.7281 49.475 37.8251 49.728 38.0192C49.981 38.2132 50.0413 38.5137 49.9091 38.9208C49.8312 39.1604 49.6978 39.3678 49.509 39.5428C49.3253 39.7139 49.1161 39.8471 48.8812 39.9422L49.3418 41.6085H48.5138ZM56.0442 38.43C55.8708 38.373 55.7317 38.333 55.6272 38.3102C55.5238 38.2836 55.3921 38.2702 55.2321 38.2702C54.9081 38.2702 54.6173 38.3958 54.3598 38.6469C54.1022 38.8979 53.9023 39.2422 53.7602 39.6797C53.6378 40.0563 53.6061 40.3816 53.6651 40.6555C53.7241 40.9294 53.9276 41.0664 54.2756 41.0664C54.4476 41.0664 54.6132 41.0492 54.7723 41.015C54.9354 40.9808 55.087 40.9389 55.2271 40.8895L55.3431 41.4373C55.1624 41.5133 54.9546 41.5742 54.7198 41.6199C54.4849 41.6655 54.2835 41.6883 54.1155 41.6883C53.4795 41.6883 53.0806 41.4943 52.9186 41.1063C52.7567 40.7183 52.7666 40.2446 52.9483 39.6854C53.1424 39.0882 53.4592 38.5993 53.8988 38.2189C54.3424 37.8385 54.8622 37.6483 55.4582 37.6483C55.5782 37.6483 55.7381 37.6673 55.9377 37.7053C56.1373 37.7434 56.3103 37.808 56.4567 37.8993L56.0442 38.43ZM61.4781 41.6085H58.6221L59.8829 37.7281H62.3189L62.2498 38.3102H60.4678L60.1285 39.3544H61.2205L61.1555 39.9422H59.9375L59.5834 41.0321H61.5394L61.4781 41.6085ZM67.3766 41.6085H64.6826L65.9434 37.7281H66.7174L65.6439 41.0321H67.4439L67.3766 41.6085ZM74.7905 40.7525C74.8947 40.8134 75.0329 40.8742 75.2052 40.9351C75.3774 40.996 75.5495 41.0264 75.7215 41.0264C75.9655 41.0264 76.1592 40.9903 76.3027 40.918C76.4502 40.8457 76.5462 40.7411 76.5907 40.6041C76.6327 40.4748 76.5878 40.3607 76.4559 40.2618C76.3293 40.159 76.1835 40.0601 76.0184 39.965C75.7761 39.8243 75.5532 39.6607 75.3498 39.4743C75.1516 39.2841 75.1081 39.0178 75.2194 38.6754C75.3146 38.3825 75.5163 38.1371 75.8246 37.9393C76.1341 37.7377 76.5128 37.6368 76.9608 37.6368C77.1648 37.6368 77.3589 37.6673 77.5432 37.7281C77.7274 37.789 77.8858 37.8556 78.0183 37.9279L77.5674 38.5213C77.462 38.4643 77.3453 38.411 77.2174 38.3615C77.0907 38.3083 76.9393 38.2817 76.7633 38.2817C76.5913 38.2817 76.4348 38.314 76.2938 38.3787C76.1568 38.4433 76.0666 38.5422 76.0234 38.6754C75.9776 38.8162 76.0093 38.9341 76.1184 39.0292C76.2328 39.1205 76.3745 39.2137 76.5436 39.3088L76.5782 39.3316C76.8204 39.4724 77.042 39.6398 77.243 39.8338C77.4492 40.024 77.4985 40.2846 77.391 40.6155C77.2909 40.9237 77.0761 41.1786 76.7465 41.3802C76.421 41.5818 76.0123 41.6826 75.5203 41.6826C75.3483 41.6826 75.138 41.6465 74.8895 41.5742C74.645 41.5019 74.4891 41.4278 74.4218 41.3517L74.7905 40.7525ZM83.2649 41.6085H80.4089L81.6697 37.7281H84.1057L84.0366 38.3102H82.2546L81.9153 39.3544H83.0073L82.9423 39.9422H81.7243L81.3702 41.0321H83.3262L83.2649 41.6085ZM88.7839 38.3444H88.3039L87.9183 39.5313H88.4103C88.6423 39.5313 88.8485 39.4876 89.0289 39.4001C89.2106 39.3088 89.3348 39.1604 89.4016 38.955C89.472 38.7382 89.4507 38.5822 89.3376 38.4871C89.2245 38.392 89.0399 38.3444 88.7839 38.3444ZM88.8394 41.6085L88.4575 40.1248C88.4122 40.1286 88.365 40.1324 88.3158 40.1362C88.2678 40.1362 88.2198 40.1362 88.1718 40.1362H87.7218L87.2434 41.6085H86.4694L87.7302 37.7281H89.0082C89.4522 37.7281 89.8007 37.8251 90.0536 38.0192C90.3066 38.2132 90.3669 38.5137 90.2347 38.9208C90.1568 39.1604 90.0234 39.3678 89.8346 39.5428C89.651 39.7139 89.4417 39.8471 89.2068 39.9422L89.6674 41.6085H88.8394ZM93.9271 41.6085L93.5705 37.8309L94.3719 37.7281L94.5973 40.5984L96.6519 37.7281H97.4379L94.5871 41.6085H93.9271ZM101.334 37.7281L100.073 41.6085H99.2993L100.56 37.7281H101.334ZM107.219 38.43C107.046 38.373 106.907 38.333 106.802 38.3102C106.699 38.2836 106.567 38.2702 106.407 38.2702C106.083 38.2702 105.792 38.3958 105.535 38.6469C105.277 38.8979 105.077 39.2422 104.935 39.6797C104.813 40.0563 104.781 40.3816 104.84 40.6555C104.899 40.9294 105.103 41.0664 105.451 41.0664C105.623 41.0664 105.788 41.0492 105.947 41.015C106.111 40.9808 106.262 40.9389 106.402 40.8895L106.518 41.4373C106.337 41.5133 106.13 41.5742 105.895 41.6199C105.66 41.6655 105.459 41.6883 105.291 41.6883C104.655 41.6883 104.256 41.4943 104.094 41.1063C103.932 40.7183 103.942 40.2446 104.123 39.6854C104.317 39.0882 104.634 38.5993 105.074 38.2189C105.518 37.8385 106.037 37.6483 106.633 37.6483C106.753 37.6483 106.913 37.6673 107.113 37.7053C107.312 37.7434 107.485 37.808 107.632 37.8993L107.219 38.43ZM112.653 41.6085H109.797L111.058 37.7281H113.494L113.425 38.3102H111.643L111.304 39.3544H112.396L112.331 39.9422H111.113L110.758 41.0321H112.714L112.653 41.6085ZM116.13 40.7525C116.234 40.8134 116.372 40.8742 116.544 40.9351C116.717 40.996 116.889 41.0264 117.061 41.0264C117.305 41.0264 117.499 40.9903 117.642 40.918C117.79 40.8457 117.885 40.7411 117.93 40.6041C117.972 40.4748 117.927 40.3607 117.795 40.2618C117.669 40.159 117.523 40.0601 117.358 39.965C117.115 39.8243 116.893 39.6607 116.689 39.4743C116.491 39.2841 116.447 39.0178 116.559 38.6754C116.654 38.3825 116.856 38.1371 117.164 37.9393C117.473 37.7377 117.852 37.6368 118.3 37.6368C118.504 37.6368 118.698 37.6673 118.882 37.7281C119.067 37.789 119.225 37.8556 119.358 37.9279L118.907 38.5213C118.801 38.4643 118.685 38.411 118.557 38.3615C118.43 38.3083 118.279 38.2817 118.103 38.2817C117.931 38.2817 117.774 38.314 117.633 38.3787C117.496 38.4433 117.406 38.5422 117.363 38.6754C117.317 38.8162 117.349 38.9341 117.458 39.0292C117.572 39.1205 117.714 39.2137 117.883 39.3088L117.917 39.3316C118.16 39.4724 118.381 39.6398 118.582 39.8338C118.788 40.024 118.838 40.2846 118.73 40.6155C118.63 40.9237 118.415 41.1786 118.086 41.3802C117.76 41.5818 117.352 41.6826 116.86 41.6826C116.688 41.6826 116.477 41.6465 116.229 41.5742C115.984 41.5019 115.828 41.4278 115.761 41.3517L116.13 40.7525Z" fill="#1F509A"/>
<rect width="85" height="1" transform="matrix(1 0 -0.309018 0.951057 35.1992 36)" fill="#1F509A"/>
<path d="M55.7574 34.5317H48.1974L48.5453 31.2448H44.5493L42.7254 34.5317H35.4894L47.0418 13.2699H58.0218L55.7574 34.5317ZM49.4404 26.8281L50.3863 19.7066H50.2423L46.5244 26.8281H49.4404ZM59.9877 23.781C61.2262 19.9691 62.9156 17.2072 65.0558 15.4953C67.22 13.7834 70.1262 12.9275 73.7742 12.9275C77.4462 12.9275 79.7878 13.772 80.7989 15.4611C81.8341 17.1502 81.7325 19.9006 80.4939 23.7125C79.2628 27.5015 77.5346 30.309 75.3093 32.135C73.1079 33.9611 70.1953 34.8741 66.5713 34.8741C62.9713 34.8741 60.6602 33.9725 59.6381 32.1693C58.64 30.3661 58.7565 27.57 59.9877 23.781ZM73.5875 19.7066C73.4683 19.1132 72.8927 18.8164 71.8607 18.8164C70.8287 18.8164 70.076 19.1018 69.6026 19.6724C69.1292 20.243 68.5884 21.4642 67.9803 23.3359L67.4908 24.8423C66.8678 26.7597 66.6196 28.0036 66.7462 28.5743C66.8728 29.1449 67.4641 29.4302 68.5201 29.4302C69.5761 29.4302 70.3251 29.1563 70.7671 28.6085C71.2091 28.0607 71.7379 26.8396 72.3534 24.945L72.8652 23.3701C73.4733 21.4984 73.7141 20.2773 73.5875 19.7066ZM98.124 34.5317H90.78L88.9696 26.1434H88.7176L85.992 34.5317H79.152L86.0604 13.2699H93.6564L95.0899 21.9321H95.3059L98.1204 13.2699H105.032L98.124 34.5317ZM116.64 13.2699L111.177 30.0808C110.584 31.9068 109.684 33.1622 108.478 33.8469C107.271 34.5317 105.324 34.8741 102.636 34.8741H100.008L101.258 29.8068H103.058C103.322 29.8068 103.505 29.7612 103.607 29.6699C103.733 29.5786 103.829 29.4302 103.896 29.2248L109.08 13.2699H116.64ZM120.573 34.5317H112.977L119.886 13.2699H127.482L120.573 34.5317Z" fill="#1F509A"/>
<path d="M9 7.5H44" stroke="url(#paint0_linear_92_3)" stroke-width="5" stroke-linecap="round"/>
<path d="M3 16H38" stroke="url(#paint1_linear_92_3)" stroke-width="5" stroke-linecap="round"/>
<defs>
<linearGradient id="paint0_linear_92_3" x1="9" y1="7.50005" x2="44" y2="7.50005" gradientUnits="userSpaceOnUse">
<stop stop-color="#1F509A" stop-opacity="0"/>
<stop offset="0.345" stop-color="#1F509A" stop-opacity="0.5"/>
<stop offset="0.56" stop-color="#1F509A"/>
</linearGradient>
<linearGradient id="paint1_linear_92_3" x1="3" y1="16" x2="38" y2="16" gradientUnits="userSpaceOnUse">
<stop stop-color="#1F509A" stop-opacity="0"/>
<stop offset="0.345" stop-color="#1F509A" stop-opacity="0.5"/>
<stop offset="0.56" stop-color="#1F509A"/>
</linearGradient>
</defs>
</svg>
