<svg width="222" height="140" viewBox="0 0 222 140" fill="none" xmlns="http://www.w3.org/2000/svg">
<path d="M199.241 109.701C199.62 110.982 198.659 112.268 197.323 112.268H48.8857C48.0414 112.268 47.288 111.738 47.003 110.943L38.19 86.3591C38.0657 86.0125 38.0396 85.6383 38.1144 85.2778L41.7847 67.5936C41.9774 66.6654 42.7951 66 43.743 66H69.2464C70.1007 66 70.8606 66.5426 71.138 67.3505L83.0559 102.063C83.3333 102.871 84.0933 103.413 84.9476 103.413H195.887C196.773 103.413 197.554 103.996 197.805 104.846L199.241 109.701Z" fill="#D8D8D8" stroke="black" stroke-width="2"/>
<path d="M195.673 96.6492C196.082 97.9388 195.12 99.2543 193.767 99.2543H89.4979C88.627 99.2543 87.8562 98.6907 87.5921 97.8607L73.8293 54.6064C73.4189 53.3165 74.3816 52 75.7352 52H180.037C180.908 52 181.679 52.5643 181.943 53.3949L195.673 96.6492Z" fill="#D8D8D8" stroke="black" stroke-width="2"/>
<path d="M71.5941 81.3545C72.2807 83.3059 70.8328 85.3503 68.7642 85.3503H48.4455C46.6245 85.3503 45.2235 83.7412 45.474 81.9376L46.7726 72.5873C46.9786 71.1041 48.2467 70 49.7441 70H65.4743C66.7473 70 67.8817 70.8034 68.3042 72.0043L71.5941 81.3545Z" fill="#3C3C3C" stroke="black"/>
<circle cx="12" cy="12" r="9.5" transform="matrix(-1 0 0.241922 0.970296 185 107)" fill="#D9D9D9" stroke="black" stroke-width="5"/>
<circle cx="12" cy="12" r="9.5" transform="matrix(-1 0 0.241922 0.970296 143 107)" fill="#D9D9D9" stroke="black" stroke-width="5"/>
<circle cx="12" cy="12" r="9.5" transform="matrix(-1 0 0.241922 0.970296 85 107)" fill="#D9D9D9" stroke="black" stroke-width="5"/>
<circle cx="183" cy="40" r="24" fill="white"/>
<path d="M183 17.25C178.5 17.25 174.102 18.5843 170.361 21.0841C166.62 23.5839 163.704 27.1369 161.982 31.294C160.26 35.451 159.809 40.0252 160.687 44.4383C161.565 48.8514 163.732 52.905 166.913 56.0867C170.095 59.2683 174.149 61.4351 178.562 62.3129C182.975 63.1907 187.549 62.7402 191.706 61.0183C195.863 59.2964 199.416 56.3804 201.916 52.6392C204.416 48.898 205.75 44.4995 205.75 40C205.75 33.9663 203.353 28.1798 199.087 23.9133C194.82 19.6469 189.034 17.25 183 17.25ZM197.869 52.5775L196.796 51.4887C196.49 51.1828 196.075 51.0108 195.643 51.0108C195.21 51.0108 194.795 51.1828 194.489 51.4887C194.183 51.7947 194.011 52.2098 194.011 52.6425C194.011 53.0752 194.183 53.4903 194.489 53.7962L195.578 54.8687C192.504 57.5246 188.672 59.145 184.625 59.5V57.875C184.625 57.444 184.454 57.0307 184.149 56.726C183.844 56.4212 183.431 56.25 183 56.25C182.569 56.25 182.156 56.4212 181.851 56.726C181.546 57.0307 181.375 57.444 181.375 57.875V59.5C177.338 59.168 173.507 57.5764 170.423 54.95L171.511 53.8775C171.817 53.5715 171.989 53.1565 171.989 52.7237C171.989 52.291 171.817 51.876 171.511 51.57C171.205 51.264 170.79 51.0921 170.358 51.0921C169.925 51.0921 169.51 51.264 169.204 51.57L168.131 52.6588C165.489 49.5526 163.897 45.6907 163.581 41.625H165.125C165.556 41.625 165.969 41.4538 166.274 41.149C166.579 40.8443 166.75 40.431 166.75 40C166.75 39.569 166.579 39.1557 166.274 38.851C165.969 38.5462 165.556 38.375 165.125 38.375H163.5C163.832 34.3377 165.424 30.5066 168.05 27.4225L169.123 28.5113C169.274 28.6619 169.454 28.781 169.652 28.8619C169.85 28.9427 170.062 28.9837 170.276 28.9825C170.49 28.9837 170.702 28.9427 170.9 28.8619C171.098 28.781 171.278 28.6619 171.43 28.5113C171.582 28.3602 171.703 28.1805 171.786 27.9824C171.868 27.7844 171.911 27.572 171.911 27.3575C171.911 27.143 171.868 26.9306 171.786 26.7326C171.703 26.5345 171.582 26.3548 171.43 26.2038L170.341 25.1312C173.447 22.4891 177.309 20.8966 181.375 20.5813V22.125C181.375 22.556 181.546 22.9693 181.851 23.274C182.156 23.5788 182.569 23.75 183 23.75C183.431 23.75 183.844 23.5788 184.149 23.274C184.454 22.9693 184.625 22.556 184.625 22.125V20.5C188.662 20.832 192.493 22.4236 195.578 25.05L194.489 26.1225C194.336 26.2736 194.216 26.4533 194.133 26.6513C194.051 26.8493 194.008 27.0617 194.008 27.2763C194.008 27.4908 194.051 27.7032 194.133 27.9012C194.216 28.0992 194.336 28.2789 194.489 28.43C194.641 28.5806 194.821 28.6998 195.019 28.7806C195.217 28.8615 195.429 28.9025 195.643 28.9013C195.856 28.9025 196.068 28.8615 196.266 28.7806C196.464 28.6998 196.644 28.5806 196.796 28.43L197.869 27.3413C200.54 30.437 202.162 34.2999 202.5 38.375H200.875C200.444 38.375 200.031 38.5462 199.726 38.851C199.421 39.1557 199.25 39.569 199.25 40C199.25 40.431 199.421 40.8443 199.726 41.149C200.031 41.4538 200.444 41.625 200.875 41.625H202.5C202.145 45.6717 200.525 49.5037 197.869 52.5775Z" fill="black"/>
<path d="M190.231 41.8038L184.625 38.9925V30.25C184.625 29.819 184.454 29.4057 184.149 29.101C183.844 28.7962 183.431 28.625 183 28.625C182.569 28.625 182.156 28.7962 181.851 29.101C181.546 29.4057 181.375 29.819 181.375 30.25V40C181.376 40.3001 181.46 40.5941 181.618 40.8493C181.775 41.1046 182.001 41.3112 182.269 41.4462L188.769 44.6962C188.994 44.8166 189.245 44.878 189.5 44.875C189.8 44.8741 190.094 44.7901 190.349 44.6323C190.605 44.4746 190.811 44.2492 190.946 43.9813C191.139 43.5975 191.172 43.153 191.038 42.745C190.904 42.337 190.614 41.9986 190.231 41.8038Z" fill="black"/>
<path d="M72.1956 46V29.68H76.5636V46H72.1956ZM79.93 46V29.68H83.986L90.274 38.536V29.68H94.642V46H90.562L84.298 37.408V46H79.93ZM106.634 46V33.112H101.834V29.68H115.802L116.21 33.112H111.002V46H106.634ZM118.133 46V29.68H122.501V46H118.133ZM136.836 46V38.104L134.628 41.08L132.876 41.32L130.236 38.104V46H125.868V29.68H128.868L133.788 35.896L138.299 29.68H141.204V46H136.836ZM144.571 46V29.68H155.395L155.803 33.112H148.939V36.088H153.955L154.363 39.52H148.939V42.568H156.115L156.523 46H144.571Z" fill="#111111"/>
<path d="M71.0172 27V13.4H76.9772C79.0705 13.4 80.6639 14.04 81.7572 15.32C82.8505 16.5867 83.3972 18.1867 83.3972 20.12C83.3972 22.24 82.7905 23.92 81.5772 25.16C80.3639 26.3867 78.8039 27 76.8972 27H71.0172ZM76.7972 16.26H74.6572V24.14H76.6572C77.4972 24.14 78.2039 23.8067 78.7772 23.14C79.3505 22.4733 79.6372 21.4667 79.6372 20.12C79.6372 19 79.3905 18.08 78.8972 17.36C78.4172 16.6267 77.7172 16.26 76.7972 16.26ZM85.3922 27V13.4H94.4122L94.7522 16.26H89.0322V18.74H93.2122L93.5522 21.6H89.0322V24.14H95.0122L95.3522 27H85.3922ZM106.91 27H97.15V13.4H100.79V24.14H106.57L106.91 27ZM108.517 27V13.4H112.157V27H108.517ZM118.842 27L113.763 13.76L117.343 13.4L120.703 22.66L123.963 13.4H127.583L122.483 27H118.842ZM129.181 27V13.4H138.201L138.541 16.26H132.821V18.74H137.001L137.341 21.6H132.821V24.14H138.801L139.141 27H129.181ZM146.539 16.26H144.579V19.86H146.579C147.139 19.86 147.599 19.6933 147.959 19.36C148.319 19.0133 148.499 18.5733 148.499 18.04C148.499 17.44 148.326 16.9933 147.979 16.7C147.632 16.4067 147.152 16.26 146.539 16.26ZM140.939 27V13.4H146.659C148.166 13.4 149.472 13.7667 150.579 14.5C151.699 15.22 152.259 16.4 152.259 18.04C152.259 18.8667 152.086 19.58 151.739 20.18C151.406 20.78 150.966 21.2667 150.419 21.64L153.419 27H149.199L146.999 22.72H144.579V27H140.939ZM158.441 27V21.64L153.821 13.76L157.601 13.4L160.241 18.3L163.061 13.4H166.801L162.081 21.68V27H158.441Z" fill="#111111"/>
<path d="M95.9761 92.6085L94.7153 88.7281H95.9933C96.4373 88.7281 96.8489 88.8251 97.2279 89.0192C97.6057 89.2094 97.8669 89.527 98.0115 89.9721C98.1549 90.4134 98.0906 90.7387 97.8186 90.9479C97.5453 91.1533 97.1927 91.256 96.7607 91.256H96.3107L96.7501 92.6085H95.9761ZM96.1696 89.3444H95.6896L96.1123 90.6455H96.6043C96.8363 90.6455 97.0083 90.596 97.1201 90.4971C97.2307 90.3944 97.2588 90.2346 97.2044 90.0178C97.1228 89.7667 96.9939 89.5917 96.8178 89.4928C96.6417 89.3939 96.4256 89.3444 96.1696 89.3444ZM102.704 89.7439L102.609 91.0963H103.689L102.704 89.7439ZM102.722 88.7281L105.533 92.5057L104.787 92.6085L104.124 91.6954H102.576L102.513 92.6085H101.733L102.062 88.7281H102.722ZM108.882 89.3444H108.402L108.788 90.5313H109.28C109.512 90.5313 109.69 90.4876 109.813 90.4001C109.936 90.3088 109.963 90.1604 109.897 89.955C109.826 89.7382 109.704 89.5822 109.529 89.4871C109.354 89.392 109.138 89.3444 108.882 89.3444ZM111.059 92.6085L109.713 91.1248C109.67 91.1286 109.625 91.1324 109.579 91.1362C109.531 91.1362 109.483 91.1362 109.435 91.1362H108.985L109.463 92.6085H108.689L107.428 88.7281H108.706C109.15 88.7281 109.562 88.8251 109.941 89.0192C110.32 89.2132 110.575 89.5137 110.708 89.9208C110.785 90.1604 110.787 90.3678 110.712 90.5428C110.639 90.7139 110.517 90.8471 110.343 90.9422L111.887 92.6085H111.059ZM116.524 89.43C116.313 89.373 116.148 89.333 116.029 89.3102C115.908 89.2836 115.768 89.2702 115.608 89.2702C115.284 89.2702 115.075 89.3958 114.98 89.6469C114.886 89.8979 114.91 90.2422 115.052 90.6797C115.174 91.0563 115.354 91.3816 115.591 91.6555C115.828 91.9294 116.12 92.0664 116.468 92.0664C116.64 92.0664 116.795 92.0492 116.932 92.015C117.073 91.9808 117.197 91.9389 117.305 91.8895L117.777 92.4373C117.646 92.5133 117.477 92.5742 117.272 92.6199C117.067 92.6655 116.881 92.6883 116.713 92.6883C116.077 92.6883 115.552 92.4943 115.137 92.1063C114.723 91.7183 114.425 91.2446 114.244 90.6854C114.05 90.0882 114.049 89.5993 114.241 89.2189C114.438 88.8385 114.834 88.6483 115.43 88.6483C115.55 88.6483 115.722 88.6673 115.946 88.7053C116.171 88.7434 116.386 88.808 116.591 88.8993L116.524 89.43ZM124.023 92.6085H121.167L119.906 88.7281H122.342L122.652 89.3102H120.87L121.209 90.3544H122.301L122.618 90.9422H121.4L121.754 92.0321H123.71L124.023 92.6085ZM129.922 92.6085H127.228L125.967 88.7281H126.741L127.814 92.0321H129.614L129.922 92.6085ZM136.779 91.7525C136.923 91.8134 137.101 91.8742 137.313 91.9351C137.524 91.996 137.716 92.0264 137.888 92.0264C138.132 92.0264 138.303 91.9903 138.399 91.918C138.5 91.8457 138.528 91.7411 138.483 91.6041C138.441 91.4748 138.322 91.3607 138.126 91.2618C137.933 91.159 137.722 91.0601 137.495 90.965C137.162 90.8243 136.833 90.6607 136.508 90.4743C136.186 90.2841 135.97 90.0178 135.858 89.6754C135.763 89.3825 135.806 89.1371 135.985 88.9393C136.164 88.7377 136.477 88.6368 136.925 88.6368C137.129 88.6368 137.343 88.6673 137.567 88.7281C137.79 88.789 137.992 88.8556 138.172 88.9279L138.106 89.5213C137.964 89.4643 137.813 89.411 137.652 89.3615C137.491 89.3083 137.323 89.2817 137.147 89.2817C136.975 89.2817 136.839 89.314 136.74 89.3787C136.645 89.4433 136.619 89.5422 136.662 89.6754C136.708 89.8162 136.817 89.9341 136.987 90.0292C137.161 90.1205 137.363 90.2137 137.594 90.3088L137.644 90.3316C137.977 90.4724 138.308 90.6398 138.635 90.8338C138.965 91.024 139.183 91.2846 139.291 91.6155C139.391 91.9237 139.342 92.1786 139.143 92.3802C138.949 92.5818 138.606 92.6826 138.114 92.6826C137.942 92.6826 137.708 92.6465 137.412 92.5742C137.121 92.5019 136.917 92.4278 136.8 92.3517L136.779 91.7525ZM145.81 92.6085H142.954L141.693 88.7281H144.129L144.438 89.3102H142.656L142.996 90.3544H144.088L144.405 90.9422H143.187L143.541 92.0321H145.497L145.81 92.6085ZM149.208 89.3444H148.728L149.114 90.5313H149.606C149.838 90.5313 150.015 90.4876 150.139 90.4001C150.261 90.3088 150.289 90.1604 150.222 89.955C150.152 89.7382 150.029 89.5822 149.854 89.4871C149.679 89.392 149.464 89.3444 149.208 89.3444ZM151.384 92.6085L150.038 91.1248C149.996 91.1286 149.951 91.1324 149.904 91.1362C149.856 91.1362 149.808 91.1362 149.76 91.1362H149.31L149.788 92.6085H149.014L147.754 88.7281H149.032C149.476 88.7281 149.887 88.8251 150.266 89.0192C150.645 89.2132 150.901 89.5137 151.033 89.9208C151.111 90.1604 151.112 90.3678 151.037 90.5428C150.965 90.7139 150.842 90.8471 150.669 90.9422L152.212 92.6085H151.384ZM156.472 92.6085L153.661 88.8309L154.395 88.7281L156.486 91.5984L156.675 88.7281H157.461L157.132 92.6085H156.472ZM161.358 88.7281L162.618 92.6085H161.844L160.584 88.7281H161.358ZM167.699 89.43C167.488 89.373 167.323 89.333 167.204 89.3102C167.083 89.2836 166.943 89.2702 166.783 89.2702C166.459 89.2702 166.25 89.3958 166.155 89.6469C166.061 89.8979 166.085 90.2422 166.227 90.6797C166.349 91.0563 166.529 91.3816 166.766 91.6555C167.003 91.9294 167.296 92.0664 167.644 92.0664C167.816 92.0664 167.97 92.0492 168.107 92.015C168.248 91.9808 168.372 91.9389 168.48 91.8895L168.952 92.4373C168.821 92.5133 168.653 92.5742 168.447 92.6199C168.242 92.6655 168.056 92.6883 167.888 92.6883C167.252 92.6883 166.727 92.4943 166.313 92.1063C165.898 91.7183 165.601 91.2446 165.419 90.6854C165.225 90.0882 165.224 89.5993 165.416 89.2189C165.613 88.8385 166.009 88.6483 166.605 88.6483C166.725 88.6483 166.897 88.6673 167.121 88.7053C167.346 88.7434 167.561 88.808 167.767 88.8993L167.699 89.43ZM175.198 92.6085H172.342L171.082 88.7281H173.518L173.827 89.3102H172.045L172.384 90.3544H173.476L173.793 90.9422H172.575L172.929 92.0321H174.885L175.198 92.6085ZM178.119 91.7525C178.262 91.8134 178.44 91.8742 178.652 91.9351C178.864 91.996 179.056 92.0264 179.228 92.0264C179.472 92.0264 179.642 91.9903 179.738 91.918C179.839 91.8457 179.867 91.7411 179.822 91.6041C179.78 91.4748 179.661 91.3607 179.465 91.2618C179.272 91.159 179.062 91.0601 178.835 90.965C178.501 90.8243 178.172 90.6607 177.847 90.4743C177.526 90.2841 177.309 90.0178 177.198 89.6754C177.103 89.3825 177.145 89.1371 177.325 88.9393C177.503 88.7377 177.816 88.6368 178.264 88.6368C178.468 88.6368 178.682 88.6673 178.906 88.7281C179.13 88.789 179.331 88.8556 179.511 88.9279L179.446 89.5213C179.303 89.4643 179.152 89.411 178.992 89.3615C178.83 89.3083 178.662 89.2817 178.486 89.2817C178.314 89.2817 178.178 89.314 178.079 89.3787C177.984 89.4433 177.959 89.5422 178.002 89.6754C178.047 89.8162 178.156 89.9341 178.327 90.0292C178.5 90.1205 178.703 90.2137 178.934 90.3088L178.983 90.3316C179.317 90.4724 179.647 90.6398 179.974 90.8338C180.304 91.024 180.523 91.2846 180.63 91.6155C180.73 91.9237 180.681 92.1786 180.483 92.3802C180.288 92.5818 179.945 92.6826 179.453 92.6826C179.281 92.6826 179.047 92.6465 178.752 92.5742C178.46 92.5019 178.256 92.4278 178.139 92.3517L178.119 91.7525Z" fill="#585858"/>
<rect width="85" height="1" transform="matrix(1 0 0.309017 0.951057 94 87)" fill="#585858"/>
<path d="M113.539 85.5317H105.979L104.191 82.2448H100.195L100.507 85.5317H93.2705L91.0061 64.2699H101.986L113.539 85.5317ZM102.215 77.8281L98.5336 70.7066H98.3896L99.2995 77.8281H102.215ZM110.783 74.781C109.544 70.9691 109.439 68.2072 110.466 66.4953C111.518 64.7834 113.868 63.9275 117.516 63.9275C121.188 63.9275 124.078 64.772 126.187 66.4611C128.32 68.1502 130.006 70.9006 131.244 74.7125C132.475 78.5015 132.572 81.309 131.533 83.135C130.518 84.9611 128.199 85.8741 124.575 85.8741C120.975 85.8741 118.078 84.9725 115.884 83.1693C113.714 81.3661 112.014 78.57 110.783 74.781ZM121.735 70.7066C121.23 70.1132 120.461 69.8164 119.429 69.8164C118.397 69.8164 117.83 70.1018 117.728 70.6724C117.625 71.243 117.878 72.4642 118.486 74.3359L118.975 75.8423C119.598 77.7597 120.159 79.0036 120.656 79.5743C121.153 80.1449 121.93 80.4302 122.986 80.4302C124.042 80.4302 124.613 80.1563 124.699 79.6085C124.785 79.0607 124.52 77.8396 123.905 75.945L123.393 74.3701C122.785 72.4984 122.232 71.2773 121.735 70.7066ZM155.905 85.5317H148.561L141.3 77.1434H141.048L143.773 85.5317H136.933L130.025 64.2699H137.621L144.683 72.9321H144.899L142.085 64.2699H148.997L155.905 85.5317ZM160.604 64.2699L166.066 81.0808C166.659 82.9068 166.575 84.1622 165.814 84.8469C165.052 85.5317 163.328 85.8741 160.64 85.8741H158.012L155.969 80.8068H157.769C158.033 80.8068 158.186 80.7612 158.229 80.6699C158.295 80.5786 158.295 80.4302 158.228 80.2248L153.044 64.2699H160.604ZM178.355 85.5317H170.759L163.85 64.2699H171.446L178.355 85.5317Z" fill="#454545"/>
</svg>
