<svg width="222" height="140" viewBox="0 0 222 140" fill="none" xmlns="http://www.w3.org/2000/svg">
<path d="M90.9 41.64C89.9933 41.1867 89.0867 40.6 88.18 39.88C87.2733 39.1467 86.82 38.2 86.82 37.04C86.8333 35.92 87.2933 34.9933 88.2 34.26C89.1067 33.5133 90.3333 33.14 91.88 33.14C92.56 33.14 93.26 33.24 93.98 33.44C94.7133 33.6267 95.3467 33.9 95.88 34.26L94.8 36.72C94.08 36.4667 93.5333 36.3067 93.16 36.24C92.7867 36.16 92.3733 36.12 91.92 36.12C91.5067 36.12 91.18 36.22 90.94 36.42C90.7 36.6067 90.58 36.8267 90.58 37.08C90.58 37.3733 90.78 37.6333 91.18 37.86C91.5933 38.0733 92.08 38.3267 92.64 38.62C93.6 39.1133 94.5267 39.7333 95.42 40.48C96.3133 41.2267 96.76 42.1533 96.76 43.26C96.76 44.4067 96.2733 45.36 95.3 46.12C94.34 46.88 93.02 47.26 91.34 47.26C90.6467 47.26 89.86 47.16 88.98 46.96C88.1133 46.7467 87.4133 46.48 86.88 46.16L88.08 43.42C88.4267 43.6333 88.9133 43.8333 89.54 44.02C90.18 44.1933 90.7467 44.28 91.24 44.28C91.8133 44.28 92.2467 44.1667 92.54 43.94C92.8467 43.7133 93 43.4733 93 43.22C93 42.98 92.78 42.72 92.34 42.44C91.9 42.16 91.42 41.8933 90.9 41.64ZM98.6891 47V33.4H107.709L108.049 36.26H102.329V38.74H106.509L106.849 41.6H102.329V44.14H108.309L108.649 47H98.6891ZM119.347 36.72C118.627 36.4667 118.08 36.3067 117.707 36.24C117.334 36.16 116.92 36.12 116.467 36.12C115.654 36.12 114.974 36.5 114.427 37.26C113.88 38.0067 113.607 39 113.607 40.24C113.607 41.52 113.894 42.5133 114.467 43.22C115.04 43.9267 115.754 44.28 116.607 44.28C117.1 44.28 117.567 44.2133 118.007 44.08C118.447 43.9333 118.84 43.7533 119.187 43.54L120.567 46.26C120.034 46.58 119.394 46.8267 118.647 47C117.914 47.1733 117.2 47.26 116.507 47.26C114.294 47.26 112.627 46.6067 111.507 45.3C110.4 43.9933 109.847 42.3133 109.847 40.26C109.847 38.1667 110.44 36.46 111.627 35.14C112.814 33.8067 114.414 33.14 116.427 33.14C117.107 33.14 117.807 33.24 118.527 33.44C119.26 33.6267 119.894 33.9 120.427 34.26L119.347 36.72ZM130.936 41.62V33.4H134.576V41.8C134.576 43.5733 134.009 44.9333 132.876 45.88C131.756 46.8133 130.289 47.28 128.476 47.28C126.662 47.28 125.189 46.8133 124.056 45.88C122.936 44.9333 122.376 43.5733 122.376 41.8V33.4H126.016V41.62C126.016 42.4733 126.242 43.1267 126.696 43.58C127.162 44.02 127.756 44.24 128.476 44.24C129.196 44.24 129.782 44.02 130.236 43.58C130.702 43.1267 130.936 42.4733 130.936 41.62ZM142.785 36.26H140.825V39.86H142.825C143.385 39.86 143.845 39.6933 144.205 39.36C144.565 39.0133 144.745 38.5733 144.745 38.04C144.745 37.44 144.572 36.9933 144.225 36.7C143.878 36.4067 143.398 36.26 142.785 36.26ZM137.185 47V33.4H142.905C144.412 33.4 145.718 33.7667 146.825 34.5C147.945 35.22 148.505 36.4 148.505 38.04C148.505 38.8667 148.332 39.58 147.985 40.18C147.652 40.78 147.212 41.2667 146.665 41.64L149.665 47H145.445L143.245 42.72H140.825V47H137.185ZM151.267 47V33.4H160.287L160.627 36.26H154.907V38.74H159.087L159.427 41.6H154.907V44.14H160.887L161.227 47H151.267Z" fill="#111111"/>
<path d="M91.4 25.64C90.4933 25.1867 89.5867 24.6 88.68 23.88C87.7733 23.1467 87.32 22.2 87.32 21.04C87.3333 19.92 87.7933 18.9933 88.7 18.26C89.6067 17.5133 90.8333 17.14 92.38 17.14C93.06 17.14 93.76 17.24 94.48 17.44C95.2133 17.6267 95.8467 17.9 96.38 18.26L95.3 20.72C94.58 20.4667 94.0333 20.3067 93.66 20.24C93.2867 20.16 92.8733 20.12 92.42 20.12C92.0067 20.12 91.68 20.22 91.44 20.42C91.2 20.6067 91.08 20.8267 91.08 21.08C91.08 21.3733 91.28 21.6333 91.68 21.86C92.0933 22.0733 92.58 22.3267 93.14 22.62C94.1 23.1133 95.0267 23.7333 95.92 24.48C96.8133 25.2267 97.26 26.1533 97.26 27.26C97.26 28.4067 96.7733 29.36 95.8 30.12C94.84 30.88 93.52 31.26 91.84 31.26C91.1467 31.26 90.36 31.16 89.48 30.96C88.6133 30.7467 87.9133 30.48 87.38 30.16L88.58 27.42C88.9267 27.6333 89.4133 27.8333 90.04 28.02C90.68 28.1933 91.2467 28.28 91.74 28.28C92.3133 28.28 92.7467 28.1667 93.04 27.94C93.3467 27.7133 93.5 27.4733 93.5 27.22C93.5 26.98 93.28 26.72 92.84 26.44C92.4 26.16 91.92 25.8933 91.4 25.64ZM104.849 21.76L103.549 25.46H106.209L104.849 21.76ZM106.729 17.4L111.809 30.64L108.229 31L107.249 28.32H102.549L101.609 31H97.9891L103.089 17.4H106.729ZM121.568 25.86H117.048V31H113.408V17.42H122.228L122.568 20.28H117.048V23H121.228L121.568 25.86ZM124.17 31V17.4H133.19L133.53 20.26H127.81V22.74H131.99L132.33 25.6H127.81V28.14H133.79L134.13 31H124.17ZM143.482 26.64C143.482 27.2 143.635 27.6467 143.942 27.98C144.262 28.3133 144.715 28.48 145.302 28.48C145.515 28.48 145.715 28.44 145.902 28.36C146.102 28.2667 146.295 28.1467 146.482 28L143.722 25.6C143.642 25.76 143.582 25.9333 143.542 26.12C143.502 26.2933 143.482 26.4667 143.482 26.64ZM145.662 22.94L148.242 25.14C148.415 24.7 148.555 24.26 148.662 23.82C148.769 23.3667 148.849 22.9533 148.902 22.58L152.102 23.86C152.035 24.4733 151.902 25.0867 151.702 25.7C151.515 26.3133 151.275 26.9 150.982 27.46L152.502 28.74L150.362 31.38L148.882 30.1C148.362 30.5133 147.789 30.8467 147.162 31.1C146.549 31.3533 145.902 31.48 145.222 31.48C143.715 31.48 142.422 31.0933 141.342 30.32C140.262 29.5333 139.722 28.3467 139.722 26.76C139.722 26.1333 139.875 25.5067 140.182 24.88C140.502 24.2533 140.922 23.7133 141.442 23.26C141.229 22.94 141.062 22.6133 140.942 22.28C140.835 21.9333 140.782 21.5533 140.782 21.14C140.782 20.06 141.202 19.1133 142.042 18.3C142.882 17.4867 143.969 17.08 145.302 17.08C146.075 17.08 146.795 17.18 147.462 17.38C148.142 17.58 148.769 17.8867 149.342 18.3L148.362 20.78C147.909 20.5267 147.469 20.3467 147.042 20.24C146.615 20.12 146.195 20.06 145.782 20.06C145.289 20.06 144.922 20.1867 144.682 20.44C144.455 20.68 144.342 20.9333 144.342 21.2C144.342 21.4533 144.449 21.7067 144.662 21.96C144.875 22.2 145.209 22.5267 145.662 22.94Z" fill="#111111"/>
<path d="M47.7593 109.701C47.3803 110.982 48.3407 112.268 49.6772 112.268H198.114C198.959 112.268 199.712 111.738 199.997 110.943L208.81 86.3591C208.934 86.0125 208.96 85.6383 208.886 85.2778L205.215 67.5936C205.023 66.6654 204.205 66 203.257 66H177.754C176.899 66 176.139 66.5426 175.862 67.3505L163.944 102.063C163.667 102.871 162.907 103.413 162.052 103.413H51.113C50.227 103.413 49.4465 103.996 49.1952 104.846L47.7593 109.701Z" fill="#D8D8D8" stroke="black" stroke-width="2"/>
<path d="M51.3269 96.6492C50.9176 97.9388 51.8802 99.2543 53.2332 99.2543H157.502C158.373 99.2543 159.144 98.6907 159.408 97.8607L173.171 54.6064C173.581 53.3165 172.618 52 171.265 52H66.9635C66.092 52 65.3209 52.5643 65.0572 53.3949L51.3269 96.6492Z" fill="#D8D8D8" stroke="black" stroke-width="2"/>
<path d="M175.406 81.3545C174.719 83.3059 176.167 85.3503 178.236 85.3503H198.555C200.375 85.3503 201.777 83.7412 201.526 81.9376L200.227 72.5873C200.021 71.1041 198.753 70 197.256 70H181.526C180.253 70 179.118 70.8034 178.696 72.0043L175.406 81.3545Z" fill="#3C3C3C" stroke="black"/>
<circle cx="12" cy="12" r="9.5" transform="matrix(1 0 -0.241922 0.970296 62 107)" fill="#D9D9D9" stroke="black" stroke-width="5"/>
<circle cx="12" cy="12" r="9.5" transform="matrix(1 0 -0.241922 0.970296 104 107)" fill="#D9D9D9" stroke="black" stroke-width="5"/>
<circle cx="12" cy="12" r="9.5" transform="matrix(1 0 -0.241922 0.970296 162 107)" fill="#D9D9D9" stroke="black" stroke-width="5"/>
<ellipse cx="64" cy="44.6429" rx="19" ry="17.6429" fill="#D9D9D9"/>
<path d="M66.8125 36.2188C66.8125 34.3969 65.3219 32.9062 63.5 32.9062C61.6781 32.9062 60.1875 34.3969 60.1875 36.2188V39.5312H66.8125V36.2188Z" fill="#3B3B3B"/>
<path d="M43.625 29.5938V42.8438C43.625 56.5907 50.9125 60.7313 60.85 66.3626L62.6719 67.3563C63.0031 67.6876 63.1687 67.6876 63.5 67.6876C63.8313 67.6876 63.9969 67.6876 64.3281 67.522L66.15 66.5282C76.0875 60.7313 83.375 56.5907 83.375 42.8438V29.5938C83.375 28.9313 82.8781 28.2688 82.2156 28.1032L63.9969 21.4782C63.6656 21.3126 63.1688 21.3126 62.8375 21.4782L44.6187 28.1032C44.1219 28.2688 43.625 28.9313 43.625 29.5938ZM53.5625 44.5001C53.5625 42.347 54.8875 40.5251 56.875 39.8626V36.2188C56.875 32.5751 59.8562 29.5938 63.5 29.5938C67.1438 29.5938 70.125 32.5751 70.125 36.2188V39.8626C72.1125 40.5251 73.4375 42.347 73.4375 44.5001V49.4688C73.4375 54.9345 68.9656 59.4063 63.5 59.4063C58.0344 59.4063 53.5625 54.9345 53.5625 49.4688V44.5001Z" fill="#3B3B3B"/>
<path d="M63.5 44.5C62.5062 44.5 61.8438 45.1625 61.8438 46.1562V49.4688C61.8438 50.4625 62.5062 51.125 63.5 51.125C64.4938 51.125 65.1562 50.4625 65.1562 49.4688V46.1562C65.1562 45.1625 64.4938 44.5 63.5 44.5Z" fill="#3B3B3B"/>
<mask id="mask0_83_76" style="mask-type:alpha" maskUnits="userSpaceOnUse" x="43" y="21" width="41" height="47">
<path d="M43.625 29.5938V42.8438C43.625 56.5907 50.9125 60.7313 60.85 66.3626L62.6719 67.3563C63.0031 67.6876 63.1687 67.6876 63.5 67.6876C63.8313 67.6876 63.9969 67.6876 64.3281 67.522L66.15 66.5282C76.0875 60.7313 83.375 56.5907 83.375 42.8438V29.5938C83.375 28.9313 82.8781 28.2688 82.2156 28.1032L63.9969 21.4782C63.6656 21.3126 63.1688 21.3126 62.8375 21.4782L44.6187 28.1032C44.1219 28.2688 43.625 28.9313 43.625 29.5938ZM53.5625 44.5001C53.5625 42.347 54.8875 40.5251 56.875 39.8626V36.2188C56.875 32.5751 59.8562 29.5938 63.5 29.5938C67.1438 29.5938 70.125 32.5751 70.125 36.2188V39.8626C72.1125 40.5251 73.4375 42.347 73.4375 44.5001V49.4688C73.4375 54.9345 68.9656 59.4063 63.5 59.4063C58.0344 59.4063 53.5625 54.9345 53.5625 49.4688V44.5001Z" fill="#3B3B3B"/>
</mask>
<g mask="url(#mask0_83_76)">
</g>
<path d="M66.431 92.6085L67.6918 88.7281H68.9698C69.4138 88.7281 69.7623 88.8251 70.0153 89.0192C70.2695 89.2094 70.3242 89.527 70.1796 89.9721C70.0362 90.4134 69.7606 90.7387 69.3526 90.9479C68.9458 91.1533 68.5265 91.256 68.0945 91.256H67.6445L67.205 92.6085H66.431ZM68.7456 89.3444H68.2656L67.8428 90.6455H68.3348C68.5668 90.6455 68.7709 90.596 68.9471 90.4971C69.1244 90.3944 69.2563 90.2346 69.3428 90.0178C69.4244 89.7667 69.4092 89.5917 69.2974 89.4928C69.1855 89.3939 69.0016 89.3444 68.7456 89.3444ZM75.0203 89.7439L74.0469 91.0963H75.1269L75.0203 89.7439ZM75.6984 88.7281L76.0549 92.5057L75.2416 92.6085L75.1722 91.6954H73.6242L72.9676 92.6085H72.1876L75.0384 88.7281H75.6984ZM81.4583 89.3444H80.9783L80.5927 90.5313H81.0847C81.3167 90.5313 81.5229 90.4876 81.7033 90.4001C81.885 90.3088 82.0092 90.1604 82.0759 89.955C82.1464 89.7382 82.1251 89.5822 82.012 89.4871C81.8989 89.392 81.7143 89.3444 81.4583 89.3444ZM81.5138 92.6085L81.1318 91.1248C81.0866 91.1286 81.0394 91.1324 80.9901 91.1362C80.9421 91.1362 80.8941 91.1362 80.8461 91.1362H80.3961L79.9178 92.6085H79.1438L80.4046 88.7281H81.6826C82.1266 88.7281 82.475 88.8251 82.728 89.0192C82.981 89.2132 83.0413 89.5137 82.9091 89.9208C82.8312 90.1604 82.6978 90.3678 82.509 90.5428C82.3253 90.7139 82.1161 90.8471 81.8812 90.9422L82.3418 92.6085H81.5138ZM89.0442 89.43C88.8708 89.373 88.7317 89.333 88.6272 89.3102C88.5238 89.2836 88.3921 89.2702 88.2321 89.2702C87.9081 89.2702 87.6173 89.3958 87.3598 89.6469C87.1022 89.8979 86.9023 90.2422 86.7602 90.6797C86.6378 91.0563 86.6061 91.3816 86.6651 91.6555C86.7241 91.9294 86.9276 92.0664 87.2756 92.0664C87.4476 92.0664 87.6132 92.0492 87.7723 92.015C87.9354 91.9808 88.087 91.9389 88.2271 91.8895L88.3431 92.4373C88.1624 92.5133 87.9546 92.5742 87.7198 92.6199C87.4849 92.6655 87.2835 92.6883 87.1155 92.6883C86.4795 92.6883 86.0806 92.4943 85.9186 92.1063C85.7567 91.7183 85.7666 91.2446 85.9483 90.6854C86.1424 90.0882 86.4592 89.5993 86.8988 89.2189C87.3424 88.8385 87.8622 88.6483 88.4582 88.6483C88.5782 88.6483 88.7381 88.6673 88.9377 88.7053C89.1373 88.7434 89.3103 88.808 89.4567 88.8993L89.0442 89.43ZM94.4781 92.6085H91.6221L92.8829 88.7281H95.3189L95.2498 89.3102H93.4678L93.1285 90.3544H94.2205L94.1555 90.9422H92.9375L92.5834 92.0321H94.5394L94.4781 92.6085ZM100.377 92.6085H97.6826L98.9434 88.7281H99.7174L98.6439 92.0321H100.444L100.377 92.6085ZM107.79 91.7525C107.895 91.8134 108.033 91.8742 108.205 91.9351C108.377 91.996 108.549 92.0264 108.721 92.0264C108.965 92.0264 109.159 91.9903 109.303 91.918C109.45 91.8457 109.546 91.7411 109.591 91.6041C109.633 91.4748 109.588 91.3607 109.456 91.2618C109.329 91.159 109.183 91.0601 109.018 90.965C108.776 90.8243 108.553 90.6607 108.35 90.4743C108.152 90.2841 108.108 90.0178 108.219 89.6754C108.315 89.3825 108.516 89.1371 108.825 88.9393C109.134 88.7377 109.513 88.6368 109.961 88.6368C110.165 88.6368 110.359 88.6673 110.543 88.7281C110.727 88.789 110.886 88.8556 111.018 88.9279L110.567 89.5213C110.462 89.4643 110.345 89.411 110.217 89.3615C110.091 89.3083 109.939 89.2817 109.763 89.2817C109.591 89.2817 109.435 89.314 109.294 89.3787C109.157 89.4433 109.067 89.5422 109.023 89.6754C108.978 89.8162 109.009 89.9341 109.118 90.0292C109.233 90.1205 109.374 90.2137 109.544 90.3088L109.578 90.3316C109.82 90.4724 110.042 90.6398 110.243 90.8338C110.449 91.024 110.499 91.2846 110.391 91.6155C110.291 91.9237 110.076 92.1786 109.747 92.3802C109.421 92.5818 109.012 92.6826 108.52 92.6826C108.348 92.6826 108.138 92.6465 107.889 92.5742C107.645 92.5019 107.489 92.4278 107.422 92.3517L107.79 91.7525ZM116.265 92.6085H113.409L114.67 88.7281H117.106L117.037 89.3102H115.255L114.915 90.3544H116.007L115.942 90.9422H114.724L114.37 92.0321H116.326L116.265 92.6085ZM121.784 89.3444H121.304L120.918 90.5313H121.41C121.642 90.5313 121.849 90.4876 122.029 90.4001C122.211 90.3088 122.335 90.1604 122.402 89.955C122.472 89.7382 122.451 89.5822 122.338 89.4871C122.224 89.392 122.04 89.3444 121.784 89.3444ZM121.839 92.6085L121.457 91.1248C121.412 91.1286 121.365 91.1324 121.316 91.1362C121.268 91.1362 121.22 91.1362 121.172 91.1362H120.722L120.243 92.6085H119.469L120.73 88.7281H122.008C122.452 88.7281 122.801 88.8251 123.054 89.0192C123.307 89.2132 123.367 89.5137 123.235 89.9208C123.157 90.1604 123.023 90.3678 122.835 90.5428C122.651 90.7139 122.442 90.8471 122.207 90.9422L122.667 92.6085H121.839ZM126.927 92.6085L126.571 88.8309L127.372 88.7281L127.597 91.5984L129.652 88.7281H130.438L127.587 92.6085H126.927ZM134.334 88.7281L133.073 92.6085H132.299L133.56 88.7281H134.334ZM140.219 89.43C140.046 89.373 139.907 89.333 139.802 89.3102C139.699 89.2836 139.567 89.2702 139.407 89.2702C139.083 89.2702 138.792 89.3958 138.535 89.6469C138.277 89.8979 138.077 90.2422 137.935 90.6797C137.813 91.0563 137.781 91.3816 137.84 91.6555C137.899 91.9294 138.103 92.0664 138.451 92.0664C138.623 92.0664 138.788 92.0492 138.947 92.015C139.111 91.9808 139.262 91.9389 139.402 91.8895L139.518 92.4373C139.337 92.5133 139.13 92.5742 138.895 92.6199C138.66 92.6655 138.459 92.6883 138.291 92.6883C137.655 92.6883 137.256 92.4943 137.094 92.1063C136.932 91.7183 136.942 91.2446 137.123 90.6854C137.317 90.0882 137.634 89.5993 138.074 89.2189C138.518 88.8385 139.037 88.6483 139.633 88.6483C139.753 88.6483 139.913 88.6673 140.113 88.7053C140.312 88.7434 140.485 88.808 140.632 88.8993L140.219 89.43ZM145.653 92.6085H142.797L144.058 88.7281H146.494L146.425 89.3102H144.643L144.304 90.3544H145.396L145.331 90.9422H144.113L143.758 92.0321H145.714L145.653 92.6085ZM149.13 91.7525C149.234 91.8134 149.372 91.8742 149.544 91.9351C149.717 91.996 149.889 92.0264 150.061 92.0264C150.305 92.0264 150.499 91.9903 150.642 91.918C150.79 91.8457 150.885 91.7411 150.93 91.6041C150.972 91.4748 150.927 91.3607 150.795 91.2618C150.669 91.159 150.523 91.0601 150.358 90.965C150.115 90.8243 149.893 90.6607 149.689 90.4743C149.491 90.2841 149.447 90.0178 149.559 89.6754C149.654 89.3825 149.856 89.1371 150.164 88.9393C150.473 88.7377 150.852 88.6368 151.3 88.6368C151.504 88.6368 151.698 88.6673 151.882 88.7281C152.067 88.789 152.225 88.8556 152.358 88.9279L151.907 89.5213C151.801 89.4643 151.685 89.411 151.557 89.3615C151.43 89.3083 151.279 89.2817 151.103 89.2817C150.931 89.2817 150.774 89.314 150.633 89.3787C150.496 89.4433 150.406 89.5422 150.363 89.6754C150.317 89.8162 150.349 89.9341 150.458 90.0292C150.572 90.1205 150.714 90.2137 150.883 90.3088L150.917 90.3316C151.16 90.4724 151.381 90.6398 151.582 90.8338C151.788 91.024 151.838 91.2846 151.73 91.6155C151.63 91.9237 151.415 92.1786 151.086 92.3802C150.76 92.5818 150.352 92.6826 149.86 92.6826C149.688 92.6826 149.477 92.6465 149.229 92.5742C148.984 92.5019 148.828 92.4278 148.761 92.3517L149.13 91.7525Z" fill="#585858"/>
<rect width="85" height="1" transform="matrix(1 0 -0.309018 0.951057 68.1992 87)" fill="#585858"/>
<path d="M88.7574 85.5317H81.1974L81.5453 82.2448H77.5493L75.7254 85.5317H68.4894L80.0418 64.2699H91.0218L88.7574 85.5317ZM82.4404 77.8281L83.3863 70.7066H83.2423L79.5244 77.8281H82.4404ZM92.9877 74.781C94.2262 70.9691 95.9156 68.2072 98.0558 66.4953C100.22 64.7834 103.126 63.9275 106.774 63.9275C110.446 63.9275 112.788 64.772 113.799 66.4611C114.834 68.1502 114.732 70.9006 113.494 74.7125C112.263 78.5015 110.535 81.309 108.309 83.135C106.108 84.9611 103.195 85.8741 99.5713 85.8741C95.9713 85.8741 93.6602 84.9725 92.6381 83.1693C91.64 81.3661 91.7565 78.57 92.9877 74.781ZM106.587 70.7066C106.468 70.1132 105.893 69.8164 104.861 69.8164C103.829 69.8164 103.076 70.1018 102.603 70.6724C102.129 71.243 101.588 72.4642 100.98 74.3359L100.491 75.8423C99.8678 77.7597 99.6196 79.0036 99.7462 79.5743C99.8728 80.1449 100.464 80.4302 101.52 80.4302C102.576 80.4302 103.325 80.1563 103.767 79.6085C104.209 79.0607 104.738 77.8396 105.353 75.945L105.865 74.3701C106.473 72.4984 106.714 71.2773 106.587 70.7066ZM131.124 85.5317H123.78L121.97 77.1434H121.718L118.992 85.5317H112.152L119.06 64.2699H126.656L128.09 72.9321H128.306L131.12 64.2699H138.032L131.124 85.5317ZM149.64 64.2699L144.177 81.0808C143.584 82.9068 142.684 84.1622 141.478 84.8469C140.271 85.5317 138.324 85.8741 135.636 85.8741H133.008L134.258 80.8068H136.058C136.322 80.8068 136.505 80.7612 136.607 80.6699C136.733 80.5786 136.829 80.4302 136.896 80.2248L142.08 64.2699H149.64ZM153.573 85.5317H145.977L152.886 64.2699H160.482L153.573 85.5317Z" fill="#454545"/>
</svg>
