<svg width="50" height="20" viewBox="0 0 50 20" fill="none" xmlns="http://www.w3.org/2000/svg">
<path d="M1.81722 13.7782C2.00611 13.2592 2.60695 12.8385 3.15924 12.8385H28.2661C28.8184 12.8385 29.4192 12.4177 29.6081 11.8988L32.9802 2.63391C33.1691 2.11493 33.7699 1.69421 34.3222 1.69421H39.7489C40.1794 1.69421 40.4673 1.95304 40.4638 2.33676L40.4273 6.28048C40.4261 6.40564 40.4562 6.5206 40.5156 6.6179L42.051 9.13315C42.1249 9.25436 42.1532 9.40256 42.1329 9.56295L41.4614 14.8781C41.3872 15.4652 40.709 16.0225 40.0689 16.0225H2.00035C1.44807 16.0225 1.15348 15.6018 1.34237 15.0828L1.81722 13.7782Z" fill="black"/>
<path d="M6.69099 0.951058C6.86165 0.425803 7.44772 0 8 0H31.4127C31.965 0 32.2743 0.425803 32.1037 0.951058L28.9911 10.5308C28.8204 11.0561 28.2343 11.4819 27.6821 11.4819H4.26938C3.7171 11.4819 3.40773 11.0561 3.57839 10.5308L6.69099 0.951058Z" fill="black"/>
<path d="M6.69099 0.951058C6.86165 0.425803 7.44772 0 8 0H31.4127C31.965 0 32.2743 0.425803 32.1037 0.951058L28.9911 10.5308C28.8204 11.0561 28.2343 11.4819 27.6821 11.4819H4.26938C3.7171 11.4819 3.40773 11.0561 3.57839 10.5308L6.69099 0.951058Z" stroke="black"/>
<path d="M12.8847 16.7774C12.4344 18.1632 10.8881 19.2867 9.43103 19.2867C7.97391 19.2867 7.15769 18.1632 7.60797 16.7774C8.05825 15.3915 9.60451 14.2681 11.0616 14.2681C12.5187 14.2681 13.335 15.3915 12.8847 16.7774Z" fill="white" stroke="black" stroke-width="1.5"/>
<path d="M34.9109 16.7774C34.4606 18.1632 32.9144 19.2867 31.4573 19.2867C30.0002 19.2867 29.1839 18.1632 29.6342 16.7774C30.0845 15.3915 31.6308 14.2681 33.0879 14.2681C34.545 14.2681 35.3612 15.3915 34.9109 16.7774Z" fill="white" stroke="black" stroke-width="1.5"/>
<rect width="5.08253" height="4.74378" rx="0.4" transform="matrix(1 0 -0.309012 0.951058 34.3668 3.38611)" fill="white"/>
<path d="M1 5H6.08253" stroke="url(#paint0_linear_66_13)" stroke-width="1.5" stroke-linecap="round"/>
<path d="M1 3H7.77671" stroke="url(#paint1_linear_66_13)" stroke-width="1.5" stroke-linecap="round"/>
<mask id="mask0_66_13" style="mask-type:alpha" maskUnits="userSpaceOnUse" x="5" y="3" width="25" height="6">
<path d="M10.2741 8.19038H8.38407L8.58282 7.41382H7.58382L7.01607 8.19038H5.20707L8.81809 3.167H11.5631L10.2741 8.19038ZM8.95676 6.37031L9.43538 4.68776H9.39938L8.22776 6.37031H8.95676ZM11.7872 5.65038C12.2264 4.74978 12.7427 4.09725 13.3359 3.6928C13.9352 3.28834 14.6908 3.08611 15.6028 3.08611C16.5208 3.08611 17.0775 3.28564 17.2729 3.68471C17.4742 4.08377 17.3553 4.7336 16.9161 5.6342C16.4795 6.5294 15.9519 7.19271 15.3335 7.62414C14.7211 8.05556 13.9619 8.27127 13.0559 8.27127C12.1559 8.27127 11.6088 8.05825 11.4146 7.63222C11.2264 7.20619 11.3506 6.54558 11.7872 5.65038ZM15.3257 4.68776C15.3161 4.54755 15.1822 4.47745 14.9242 4.47745C14.6662 4.47745 14.4684 4.54486 14.3306 4.67968C14.1929 4.8145 14.0161 5.10301 13.8005 5.54522L13.6269 5.90114C13.4059 6.35413 13.3016 6.64804 13.3138 6.78286C13.3261 6.91768 13.4642 6.98509 13.7282 6.98509C13.9922 6.98509 14.1888 6.92038 14.3179 6.79095C14.447 6.66152 14.6207 6.37301 14.839 5.92541L15.0205 5.55331C15.2362 5.1111 15.3379 4.82258 15.3257 4.68776ZM21.0457 8.19038H19.2097L19.0423 6.20853H18.9793L18.0127 8.19038H16.3027L18.7528 3.167H20.6518L20.7156 5.21356H20.7696L21.7678 3.167H23.4958L21.0457 8.19038ZM26.4876 3.167L24.5504 7.13878C24.34 7.57021 24.0723 7.86681 23.7474 8.02859C23.4225 8.19038 22.9241 8.27127 22.2521 8.27127H21.5951L22.08 7.07407H22.53C22.596 7.07407 22.6432 7.06329 22.6718 7.04171C22.7063 7.02014 22.7354 6.98509 22.7591 6.93656L24.5976 3.167H26.4876ZM26.8381 8.19038H24.9391L27.3891 3.167H29.2881L26.8381 8.19038Z" fill="white"/>
</mask>
<g mask="url(#mask0_66_13)">
<path d="M7.57715 0H32.9898L29.2592 11.4819H3.84653L7.57715 0Z" fill="#F1F1F1"/>
<path d="M7.57715 0H32.9898L29.2592 11.4819H3.84653L7.57715 0Z" stroke="black"/>
</g>
<mask id="mask1_66_13" style="mask-type:alpha" maskUnits="userSpaceOnUse" x="3" y="9" width="39" height="5">
<path d="M8.27644 10.4271H7.31284L5.86641 13.3928H4.31151L5.75794 10.4271H4.74324L5.34975 9.31827H8.90485L8.27644 10.4271ZM12.1381 10.6305C12.0101 10.893 11.859 11.1029 11.6849 11.2604C11.5178 11.4135 11.3056 11.5491 11.0485 11.6672L10.8858 13.3928H9.27249L9.5047 11.9887H9.3879L8.70309 13.3928H7.20659L9.19383 9.31827H11.1283C11.6929 9.31827 12.0567 9.42543 12.2198 9.63977C12.3851 9.84972 12.3579 10.18 12.1381 10.6305ZM9.93161 11.1882C10.0435 11.1882 10.1353 11.1598 10.2068 11.1029C10.2853 11.0417 10.3609 10.9367 10.4334 10.788C10.5059 10.6393 10.5318 10.5365 10.5108 10.4796C10.4899 10.4227 10.4283 10.3943 10.3261 10.3943H10.1363L9.74911 11.1882H9.93161ZM15.2109 13.3928H13.6779L13.8391 12.7629H13.0288L12.5683 13.3928H11.101L14.0299 9.31827H16.2564L15.2109 13.3928ZM14.1424 11.9165L14.5306 10.5518H14.5014L13.5511 11.9165H14.1424ZM19.4264 13.3928H17.9372L17.8015 11.7853H17.7504L16.9663 13.3928H15.5793L17.5666 9.31827H19.1069L19.1587 10.9783H19.2025L20.0121 9.31827H21.4137L19.4264 13.3928ZM21.218 10.6239C21.4292 10.1909 21.7394 9.8541 22.1488 9.61352C22.5581 9.37294 23.0207 9.25265 23.5366 9.25265C24.0573 9.25265 24.5713 9.29639 25.0786 9.38388L24.3475 10.5387C23.7925 10.4293 23.4201 10.3746 23.2303 10.3746C23.0405 10.3746 22.92 10.4271 22.8688 10.5321C22.8496 10.5715 22.8503 10.5999 22.871 10.6174C22.8938 10.6305 22.9103 10.6414 22.9207 10.6502C22.931 10.6589 22.9524 10.6699 22.985 10.683C23.0224 10.6961 23.05 10.7092 23.068 10.7224C23.0929 10.7311 23.1645 10.7639 23.2828 10.8208C23.408 10.8733 23.4986 10.917 23.5546 10.952C23.6175 10.9826 23.6965 11.0351 23.7916 11.1095C24.0624 11.3326 24.0922 11.6606 23.881 12.0937C23.6698 12.5267 23.362 12.8635 22.9575 13.1041C22.5552 13.3403 22.0839 13.4584 21.5437 13.4584C21.0084 13.4584 20.5116 13.3993 20.0533 13.2812L20.6963 12.1724C21.2759 12.3211 21.6801 12.3955 21.9088 12.3955C22.0597 12.3955 22.1586 12.3474 22.2055 12.2511C22.2269 12.2074 22.2245 12.1724 22.1983 12.1462C22.1771 12.1199 22.1374 12.0915 22.0793 12.0609C22.0261 12.0302 21.9431 11.9909 21.8303 11.9428C21.7197 11.8903 21.6266 11.8465 21.5512 11.8115C21.478 11.7722 21.3973 11.7131 21.3091 11.6344C21.0371 11.3938 21.0067 11.057 21.218 10.6239ZM26.156 12.1199H25.8421L25.2213 13.3928H23.6883L25.6756 9.31827H27.4422C28.0408 9.31827 28.423 9.42762 28.5889 9.64633C28.7547 9.86503 28.715 10.2259 28.4697 10.7289C28.2243 11.232 27.918 11.5906 27.5507 11.805C27.1854 12.0149 26.7206 12.1199 26.156 12.1199ZM26.6931 11.1685C26.771 11.0985 26.8505 10.9804 26.9316 10.8142C27.0126 10.648 27.0459 10.5299 27.0314 10.4599C27.0217 10.3899 26.9536 10.3549 26.8271 10.3549H26.6738L26.2258 11.2735H26.4156C26.5275 11.2735 26.62 11.2385 26.6931 11.1685ZM28.4555 11.3326C28.8118 10.6021 29.2305 10.0728 29.7117 9.74474C30.1978 9.41668 30.8107 9.25265 31.5504 9.25265C32.295 9.25265 32.7466 9.4145 32.905 9.73818C33.0684 10.0619 32.9719 10.589 32.6156 11.3194C32.2615 12.0455 31.8336 12.5836 31.332 12.9335C30.8353 13.2834 30.2195 13.4584 29.4846 13.4584C28.7546 13.4584 28.3108 13.2856 28.1533 12.9401C28.0006 12.5945 28.1014 12.0587 28.4555 11.3326ZM31.3256 10.5518C31.3178 10.438 31.2093 10.3812 31 10.3812C30.7907 10.3812 30.6302 10.4359 30.5185 10.5452C30.4068 10.6546 30.2634 10.8886 30.0885 11.2473L29.9477 11.536C29.7685 11.9034 29.6839 12.1418 29.6938 12.2511C29.7037 12.3605 29.8158 12.4152 30.0299 12.4152C30.244 12.4152 30.4035 12.3627 30.5082 12.2577C30.6129 12.1527 30.7538 11.9187 30.9309 11.5556L31.0781 11.2538C31.253 10.8951 31.3355 10.6611 31.3256 10.5518ZM37.0497 10.6305C36.9217 10.893 36.7706 11.1029 36.5964 11.2604C36.4293 11.4135 36.2172 11.5491 35.96 11.6672L35.7973 13.3928H34.184L34.4162 11.9887H34.2994L33.6146 13.3928H32.1181L34.1054 9.31827H36.0399C36.6044 9.31827 36.9682 9.42543 37.1314 9.63977C37.2966 9.84972 37.2694 10.18 37.0497 10.6305ZM34.8431 11.1882C34.9551 11.1882 35.0468 11.1598 35.1183 11.1029C35.1969 11.0417 35.2724 10.9367 35.345 10.788C35.4175 10.6393 35.4433 10.5365 35.4224 10.4796C35.4014 10.4227 35.3399 10.3943 35.2377 10.3943H35.0479L34.6606 11.1882H34.8431ZM40.9191 10.4271H39.9555L38.5091 13.3928H36.9542L38.4006 10.4271H37.3859L37.9924 9.31827H41.5475L40.9191 10.4271Z" fill="#DDDDDD"/>
</mask>
<g mask="url(#mask1_66_13)">
<path d="M2.02243 13.2143C2.09799 13.0067 2.33832 12.8385 2.55924 12.8385H28.8661C29.087 12.8385 29.3273 12.6702 29.4029 12.4626L33.1854 2.07009C33.2609 1.8625 33.5013 1.69421 33.7222 1.69421H40.1814C40.3536 1.69421 40.4687 1.79774 40.4673 1.95123L40.4262 6.39438C40.4258 6.44445 40.4378 6.49043 40.4616 6.52935L42.1187 9.24415C42.1483 9.29263 42.1596 9.35191 42.1515 9.41607L41.3746 15.5647C41.345 15.7996 41.0737 16.0225 40.8176 16.0225H1.40035C1.17944 16.0225 1.0616 15.8542 1.13716 15.6466L2.02243 13.2143Z" fill="#F1F1F1"/>
<path d="M6.55444 0H31.9671L28.2365 11.4819H2.82382L6.55444 0Z" fill="#F1F1F1"/>
<path d="M6.55444 0H31.9671L28.2365 11.4819H2.82382L6.55444 0Z" stroke="black"/>
</g>
<defs>
<linearGradient id="paint0_linear_66_13" x1="0.999977" y1="5.00002" x2="3.4526" y2="7.53974" gradientUnits="userSpaceOnUse">
<stop stop-color="#F0F0F0"/>
<stop offset="0.475" stop-color="#939393"/>
<stop offset="1" stop-color="#242424"/>
</linearGradient>
<linearGradient id="paint1_linear_66_13" x1="0.80689" y1="3.19311" x2="4.19531" y2="6.58147" gradientUnits="userSpaceOnUse">
<stop stop-color="#F3F3F3"/>
<stop offset="0.394545" stop-color="#B7B7B7"/>
<stop offset="0.919545" stop-color="#2D2D2D"/>
</linearGradient>
</defs>
</svg>
