<svg width="32" height="14" viewBox="0 0 32 14" fill="none" xmlns="http://www.w3.org/2000/svg">
<g clip-path="url(#clip0_68_2)">
<path d="M1.67487 9.08995C1.76122 8.8527 2.0359 8.66038 2.28837 8.66038H19.6598C19.9123 8.66038 20.187 8.46804 20.2732 8.2308L22.6968 1.5724C22.7831 1.33515 23.0578 1.14282 23.3103 1.14282H27.3452C27.5419 1.14282 27.6736 1.26114 27.672 1.43655L27.6457 4.27784C27.6451 4.33506 27.659 4.38762 27.6861 4.4321L28.7659 6.20112C28.7998 6.25652 28.8127 6.32427 28.8034 6.3976L28.3122 10.2851C28.2783 10.5534 27.9683 10.8082 27.6756 10.8082H1.50661C1.25414 10.8082 1.11947 10.6159 1.20582 10.3787L1.67487 9.08995Z" fill="white"/>
<path d="M4.65689 0.434768C4.73491 0.194653 5.00282 0 5.2553 0H21.4839C21.7363 0 21.8778 0.194653 21.7998 0.43477L19.5657 7.31053C19.4876 7.55065 19.2198 7.7453 18.9673 7.7453H2.7387C2.48623 7.7453 2.34481 7.55065 2.42282 7.31053L4.65689 0.434768Z" fill="white"/>
<path d="M4.65689 0.434768C4.73491 0.194653 5.00282 0 5.2553 0H21.4839C21.7363 0 21.8778 0.194653 21.7998 0.43477L19.5657 7.31053C19.4876 7.55065 19.2198 7.7453 18.9673 7.7453H2.7387C2.48623 7.7453 2.34481 7.55065 2.42282 7.31053L4.65689 0.434768Z" stroke="white"/>
<path d="M26.531 2.28564H24.0167C23.7642 2.28564 23.4963 2.4803 23.4183 2.72041L22.712 4.89426C22.634 5.13438 22.7754 5.32903 23.0279 5.32903H25.5421C25.7946 5.32903 26.0625 5.13438 26.1406 4.89426L26.8469 2.72041C26.9249 2.4803 26.7835 2.28564 26.531 2.28564Z" fill="#2B2B2B"/>
<path d="M1.1416 2.28564H5.71303" stroke="url(#paint0_linear_68_2)" stroke-width="0.8" stroke-linecap="round"/>
<path d="M-1 4H5" stroke="url(#paint1_linear_68_2)" stroke-width="0.8" stroke-linecap="round"/>
<mask id="mask0_68_2" style="mask-type:alpha" maskUnits="userSpaceOnUse" x="5" y="2" width="16" height="4">
<path d="M8.51326 5.25155H7.36126L7.4824 4.77821H6.87349L6.52743 5.25155H5.4248L7.62582 2.18968H9.29896L8.51326 5.25155ZM7.71034 4.14218L8.00207 3.11662H7.98013L7.26599 4.14218H7.71034ZM9.43555 3.70335C9.70327 3.15443 10.0179 2.75669 10.3796 2.51016C10.7448 2.26364 11.2054 2.14038 11.7612 2.14038C12.3208 2.14038 12.6601 2.262 12.7792 2.50524C12.9019 2.74847 12.8295 3.14456 12.5617 3.6935C12.2956 4.23914 11.974 4.64344 11.5971 4.9064C11.2238 5.16936 10.7611 5.30085 10.2088 5.30085C9.66028 5.30085 9.3268 5.17101 9.20843 4.91134C9.09371 4.65166 9.16941 4.249 9.43555 3.70335ZM11.5923 3.11662C11.5865 3.03116 11.5049 2.98843 11.3477 2.98843C11.1904 2.98843 11.0698 3.02951 10.9858 3.1117C10.9019 3.19387 10.7942 3.36973 10.6627 3.63926L10.5569 3.8562C10.4222 4.13231 10.3586 4.31146 10.3661 4.39363C10.3735 4.47581 10.4577 4.5169 10.6186 4.5169C10.7796 4.5169 10.8994 4.47744 10.9781 4.39856C11.0568 4.31967 11.1627 4.14382 11.2957 3.871L11.4063 3.64419C11.5378 3.37466 11.5998 3.1988 11.5923 3.11662ZM15.0788 5.25155H13.9598L13.8577 4.04356H13.8193L13.2302 5.25155H12.1879L13.6812 2.18968H14.8387L14.8776 3.43711H14.9105L15.519 2.18968H16.5722L15.0788 5.25155ZM18.3957 2.18968L17.2151 4.61058C17.0867 4.87354 16.9236 5.05432 16.7256 5.15293C16.5275 5.25155 16.2238 5.30085 15.8142 5.30085H15.4137L15.7092 4.57112H15.9835C16.0238 4.57112 16.0526 4.56455 16.0699 4.55141C16.091 4.53826 16.1088 4.5169 16.1232 4.48731L17.2438 2.18968H18.3957ZM18.6095 5.25155H17.452L18.9452 2.18968H20.1027L18.6095 5.25155Z" fill="white"/>
</mask>
<g mask="url(#mask0_68_2)">
<path d="M4.65689 0.434768C4.73491 0.194653 5.00282 0 5.2553 0H21.4839C21.7363 0 21.8778 0.194653 21.7998 0.43477L19.5657 7.31053C19.4876 7.55065 19.2198 7.7453 18.9673 7.7453H2.7387C2.48623 7.7453 2.34481 7.55065 2.42282 7.31053L4.65689 0.434768Z" fill="#313131"/>
<path d="M5.25552 -3.56523C5.33355 -3.80535 5.60146 -4 5.85394 -4H22.0825C22.335 -4 22.4765 -3.80535 22.3984 -3.56523L20.1643 3.31053C20.0863 3.55065 19.8184 3.7453 19.5659 3.7453H3.33733C3.08486 3.7453 2.94344 3.55065 3.02145 3.31053L5.25552 -3.56523Z" fill="#6D6D6D"/>
<path d="M4.65689 0.434768C4.73491 0.194653 5.00282 0 5.2553 0H21.4839C21.7363 0 21.8778 0.194653 21.7998 0.43477L19.5657 7.31053C19.4876 7.55065 19.2198 7.7453 18.9673 7.7453H2.7387C2.48623 7.7453 2.34481 7.55065 2.42282 7.31053L4.65689 0.434768Z" stroke="black"/>
</g>
<mask id="mask1_68_2" style="mask-type:alpha" maskUnits="userSpaceOnUse" x="2" y="6" width="27" height="4">
<path d="M5.10093 7.73366H4.42207L3.40305 9.82297H2.30762L3.32665 7.73366H2.61179L3.03908 6.95248H5.54365L5.10093 7.73366ZM7.82148 7.87695C7.7313 8.06184 7.62487 8.20976 7.50219 8.3207C7.38445 8.42855 7.235 8.52408 7.05385 8.60728L6.93921 9.82297H5.80263L5.96623 8.83378H5.88395L5.40149 9.82297H4.34721L5.74724 6.95248H7.1101C7.50781 6.95248 7.76412 7.02798 7.87905 7.17897C7.99548 7.32689 7.97629 7.55954 7.82148 7.87695ZM6.26699 8.26985C6.34585 8.26985 6.41047 8.24982 6.46087 8.20976C6.5162 8.16662 6.56941 8.09266 6.62052 7.98789C6.67162 7.88311 6.6898 7.8107 6.67505 7.77064C6.6603 7.73057 6.61693 7.71055 6.54493 7.71055H6.41122L6.13842 8.26985H6.26699ZM9.98622 9.82297H8.90622L9.0198 9.37922H8.44894L8.12451 9.82297H7.09079L9.15426 6.95248H10.7228L9.98622 9.82297ZM9.23348 8.78294L9.50699 7.82149H9.48642L8.81691 8.78294H9.23348ZM12.9561 9.82297H11.9069L11.8113 8.69049H11.7753L11.223 9.82297H10.2458L11.6459 6.95248H12.731L12.7675 8.12193H12.7983L13.3687 6.95248H14.3562L12.9561 9.82297ZM14.2182 7.87233C14.367 7.56725 14.5857 7.32997 14.874 7.16048C15.1623 6.99099 15.4883 6.90625 15.8517 6.90625C16.2186 6.90625 16.5806 6.93706 16.938 6.9987L16.4229 7.81224C16.0319 7.7352 15.7697 7.69667 15.6359 7.69667C15.5022 7.69667 15.4173 7.73366 15.3812 7.80761C15.3677 7.83535 15.3682 7.85538 15.3828 7.8677C15.3988 7.87695 15.4105 7.88465 15.4178 7.89081C15.4251 7.89698 15.4402 7.90469 15.463 7.91393C15.4894 7.92318 15.509 7.93242 15.5215 7.94166C15.5391 7.94783 15.5895 7.97094 15.6729 8.01099C15.7611 8.04798 15.825 8.07879 15.8644 8.10344C15.9087 8.12502 15.9644 8.162 16.0314 8.21438C16.2222 8.37154 16.2431 8.60266 16.0943 8.90774C15.9455 9.21281 15.7287 9.45009 15.4437 9.61958C15.1603 9.78599 14.8283 9.86919 14.4477 9.86919C14.0706 9.86919 13.7206 9.82759 13.3978 9.74439L13.8508 8.96321C14.259 9.06798 14.5438 9.12037 14.705 9.12037C14.8113 9.12037 14.8809 9.08647 14.914 9.01868C14.929 8.98786 14.9274 8.96321 14.9089 8.94472C14.8939 8.92623 14.866 8.9062 14.8251 8.88463C14.7876 8.86305 14.7291 8.83533 14.6497 8.80143C14.5717 8.76445 14.5061 8.73364 14.453 8.70897C14.4014 8.68125 14.3445 8.63965 14.2825 8.58417C14.0908 8.41469 14.0694 8.17741 14.2182 7.87233ZM17.6971 8.92623H17.4759L17.0386 9.82297H15.9586L17.3587 6.95248H18.6033C19.025 6.95248 19.2942 7.02952 19.411 7.18359C19.5279 7.33767 19.4999 7.59191 19.327 7.94629C19.1542 8.30066 18.9385 8.55336 18.6796 8.70436C18.4223 8.85228 18.0948 8.92623 17.6971 8.92623ZM18.0755 8.25599C18.1303 8.20667 18.1863 8.12347 18.2435 8.00638C18.3006 7.88928 18.3241 7.80607 18.3138 7.75677C18.307 7.70746 18.259 7.68281 18.1699 7.68281H18.0619L17.7462 8.32994H17.8799C17.9588 8.32994 18.0239 8.30529 18.0755 8.25599ZM19.3171 8.37154C19.5681 7.85691 19.8631 7.48405 20.2021 7.25292C20.5445 7.0218 20.9763 6.90625 21.4974 6.90625C22.022 6.90625 22.3402 7.02027 22.4518 7.24831C22.5668 7.47634 22.4989 7.84768 22.2478 8.3623C21.9983 8.87384 21.697 9.25288 21.3436 9.49941C20.9937 9.74593 20.5598 9.86919 20.0421 9.86919C19.5278 9.86919 19.2151 9.74747 19.1042 9.50403C18.9966 9.26059 19.0676 8.88309 19.3171 8.37154ZM21.3391 7.82149C21.3335 7.74136 21.2571 7.7013 21.1097 7.7013C20.9622 7.7013 20.8492 7.73982 20.7705 7.81686C20.6917 7.8939 20.5908 8.05877 20.4675 8.31145L20.3684 8.51484C20.2421 8.77369 20.1825 8.94164 20.1894 9.01868C20.1965 9.09572 20.2754 9.13423 20.4262 9.13423C20.5771 9.13423 20.6894 9.09726 20.7633 9.0233C20.837 8.94934 20.9363 8.78448 21.061 8.52871L21.1647 8.31608C21.2879 8.06338 21.3461 7.89853 21.3391 7.82149ZM25.3717 7.87695C25.2815 8.06184 25.175 8.20976 25.0524 8.3207C24.9347 8.42855 24.7852 8.52408 24.6041 8.60728L24.4894 9.82297H23.3529L23.5164 8.83378H23.4341L22.9517 9.82297H21.8974L23.2974 6.95248H24.6603C25.058 6.95248 25.3143 7.02798 25.4292 7.17897C25.5457 7.32689 25.5265 7.55954 25.3717 7.87695ZM23.8172 8.26985C23.8961 8.26985 23.9606 8.24982 24.011 8.20976C24.0663 8.16662 24.1196 8.09266 24.1707 7.98789C24.2218 7.88311 24.2399 7.8107 24.2252 7.77064C24.2105 7.73057 24.1671 7.71055 24.0951 7.71055H23.9614L23.6886 8.26985H23.8172ZM28.0978 7.73366H27.4189L26.3998 9.82297H25.3044L26.3235 7.73366H25.6086L26.0358 6.95248H28.5404L28.0978 7.73366Z" fill="#626262"/>
</mask>
<g mask="url(#mask1_68_2)">
<path d="M1.67584 9.08995C1.7622 8.8527 2.03687 8.66038 2.28934 8.66038H19.6608C19.9133 8.66038 20.1879 8.46804 20.2743 8.2308L22.6977 1.5724C22.7841 1.33515 23.0587 1.14282 23.3112 1.14282H27.3462C27.5429 1.14282 27.6745 1.26114 27.6729 1.43655L27.6466 4.27784C27.6462 4.33506 27.6599 4.38762 27.6871 4.4321L28.7669 6.20112C28.8007 6.25652 28.8136 6.32427 28.8043 6.3976L28.3131 10.2851C28.2792 10.5534 27.9693 10.8082 27.6766 10.8082H1.50758C1.25511 10.8082 1.12044 10.6159 1.20679 10.3787L1.67584 9.08995Z" fill="#5A5A5A"/>
<path d="M4.65787 0.434768C4.73589 0.194653 5.0038 0 5.25628 0H21.4848C21.7373 0 21.8788 0.194653 21.8007 0.43477L19.5667 7.31053C19.4886 7.55065 19.2207 7.7453 18.9683 7.7453H2.73967C2.4872 7.7453 2.34579 7.55065 2.4238 7.31053L4.65787 0.434768Z" fill="#5C5C5C"/>
<path d="M4.65787 0.434768C4.73589 0.194653 5.0038 0 5.25628 0H21.4848C21.7373 0 21.8788 0.194653 21.8007 0.43477L19.5667 7.31053C19.4886 7.55065 19.2207 7.7453 18.9683 7.7453H2.73967C2.4872 7.7453 2.34579 7.55065 2.4238 7.31053L4.65787 0.434768Z" stroke="#1D1D1D"/>
</g>
<path d="M6.76027 12.947C7.70704 12.947 8.71173 12.2171 9.0043 11.3167C9.29687 10.4162 8.76653 9.68628 7.81976 9.68628C6.87298 9.68628 5.86829 10.4162 5.57573 11.3167C5.28316 12.2171 5.81349 12.947 6.76027 12.947Z" fill="white" stroke="#323232"/>
<path d="M21.6177 12.947C22.5645 12.947 23.5692 12.2171 23.8617 11.3167C24.1543 10.4162 23.624 9.68628 22.6772 9.68628C21.7304 9.68628 20.7257 10.4162 20.4331 11.3167C20.1406 12.2171 20.6709 12.947 21.6177 12.947Z" fill="white" stroke="#323232"/>
</g>
<defs>
<linearGradient id="paint0_linear_68_2" x1="1.1416" y1="2.78564" x2="5.71303" y2="2.78564" gradientUnits="userSpaceOnUse">
<stop stop-color="#979797" stop-opacity="0"/>
<stop offset="0.425" stop-color="#4F46E5" stop-opacity="0.75"/>
<stop offset="1" stop-color="#4338CA"/>
</linearGradient>
<linearGradient id="paint1_linear_68_2" x1="-1" y1="4.5" x2="5" y2="4.5" gradientUnits="userSpaceOnUse">
<stop offset="0.164545" stop-color="#979797" stop-opacity="0"/>
<stop offset="0.644545" stop-color="#4F46E5" stop-opacity="0.75"/>
<stop offset="1" stop-color="#4338CA"/>
</linearGradient>
<clipPath id="clip0_68_2">
<rect width="32" height="13.7143" fill="white"/>
</clipPath>
</defs>
</svg>
